<svg xmlns="http://www.w3.org/2000/svg" viewBox="0 0 815.94 820.6"><defs><style>.cls-1{fill:#55737b;}.cls-2{fill:#9fbbc0;}.cls-3{fill:#2c4754;}.cls-4{fill:#0b1e2e;}.cls-5{fill:#435c69;}.cls-6{fill:#000207;}.cls-7{fill:#040e20;}.cls-8{fill:#091e31;}.cls-9{fill:#304b58;}.cls-10{fill:#01091a;}.cls-11{fill:#152233;}.cls-12{fill:#02102a;}.cls-13{fill:#000611;}.cls-14{fill:#00030b;}.cls-15{fill:#081427;}.cls-16{fill:#01071a;}.cls-17{fill:#010d21;}.cls-18{fill:#284552;}.cls-19{fill:#648388;}.cls-20{fill:#97b4b9;}.cls-21{fill:#56747c;}.cls-22{fill:#a7c6ca;}.cls-23{fill:#6a898c;}.cls-24{fill:#829fa4;}</style></defs><title>Bennu</title><g id="Layer_2" data-name="Layer 2"><g id="Layer_1-2" data-name="Layer 1"><polygon class="cls-1" points="294.42 354.47 215.23 180.39 457.25 209.65 294.42 354.47"/><polygon class="cls-2" points="637.85 54.5 457.25 209.65 463.19 0 637.85 54.5"/><polygon class="cls-3" points="574.99 416.9 294.42 354.47 457.25 209.65 574.99 416.9"/><polygon class="cls-4" points="125.25 481.45 0.3 314.24 215.23 180.39 125.25 481.45"/><polygon class="cls-5" points="294.42 354.47 125.25 481.45 215.23 180.39 294.42 354.47"/><polygon class="cls-6" points="0 505.81 0.3 314.24 125.25 481.45 0 505.81"/><polygon class="cls-6" points="71.9 715.95 0 505.81 128.63 656.99 71.9 715.95"/><polygon class="cls-7" points="125.25 481.45 128.63 656.99 0 505.81 125.25 481.45"/><polygon class="cls-8" points="343.61 628.9 294.42 354.47 125.25 481.45 343.61 628.9"/><polygon class="cls-9" points="483.51 536.4 574.99 416.9 294.42 354.47 483.51 536.4"/><polygon class="cls-10" points="343.61 628.9 294.42 354.47 483.51 536.4 343.61 628.9"/><polygon class="cls-11" points="128.63 656.99 125.25 481.45 343.61 628.9 128.63 656.99"/><polygon class="cls-12" points="233.56 820.6 71.9 715.95 128.63 656.99 233.56 820.6"/><polygon class="cls-13" points="343.61 628.9 233.56 820.6 128.63 656.99 343.61 628.9"/><polygon class="cls-14" points="459.01 818.25 343.61 628.9 233.56 820.6 459.01 818.25"/><polygon class="cls-15" points="483.51 536.4 459.01 818.25 343.61 628.9 483.51 536.4"/><polygon class="cls-6" points="626.83 725.21 483.51 536.4 459.01 818.25 626.83 725.21"/><polygon class="cls-16" points="776.7 528.76 483.51 536.4 626.83 725.21 776.7 528.76"/><polygon class="cls-17" points="574.99 416.9 776.7 528.76 483.51 536.4 574.99 416.9"/><polygon class="cls-18" points="760.69 215.77 574.99 416.9 776.7 528.76 815.94 390.31 760.69 215.77"/><polygon class="cls-19" points="457.25 209.65 760.69 215.77 574.99 416.9 457.25 209.65"/><polygon class="cls-20" points="637.85 54.5 760.69 215.77 457.25 209.65 637.85 54.5"/><polygon class="cls-21" points="215.23 180.39 232.64 48.35 120.28 120.36 0.3 314.24 215.23 180.39"/><polygon class="cls-22" points="316.65 58.7 463.19 0 457.25 209.65 316.65 58.7"/><polygon class="cls-23" points="232.64 48.35 316.65 58.7 215.23 180.39 232.64 48.35"/><polygon class="cls-24" points="215.23 180.39 316.65 58.7 457.25 209.65 215.23 180.39"/></g></g></svg>