<svg xmlns="http://www.w3.org/2000/svg" viewBox="0 0 516 516"><defs><style>.cls-1,.cls-2{fill:none;stroke:#fff;stroke-miterlimit:10;}.cls-1{stroke-width:5px;}.cls-2{stroke-width:10px;}.cls-3{fill:#fff;}</style></defs><title>Carbon</title><g id="Layer_2" data-name="Layer 2"><g id="Layer_1-2" data-name="Layer 1"><circle class="cls-1" cx="258" cy="258" r="240"/><circle class="cls-1" cx="258.5" cy="257.5" r="180"/><circle class="cls-2" cx="258.5" cy="257.5" r="120"/><circle class="cls-3" cx="258.5" cy="77.5" r="18"/><circle class="cls-3" cx="259" cy="18" r="18"/><circle class="cls-3" cx="18" cy="258" r="18"/><circle class="cls-3" cx="498" cy="258" r="18"/><circle class="cls-3" cx="258" cy="438" r="18"/><circle class="cls-3" cx="258" cy="498" r="18"/><path class="cls-3" d="M299.27,231c-11.88-10.74-22.94-11.87-29-11.87-23.26,0-39,17.17-39,40.75,0,22.62,16.37,40.11,39.15,40.11,12.83,0,22.78-6.58,28.88-12.36V307a58.47,58.47,0,0,1-29.36,8c-19.41,0-31.61-8.83-37.86-14.76-12.52-11.71-17.17-25.35-17.17-40.43,0-19.73,8.18-33.37,17.17-41.87,11.07-10.43,23.9-14,38.66-14,9.79,0,19.25,1.76,28.56,7.7Z"/></g></g></svg>