<svg xmlns="http://www.w3.org/2000/svg" xmlns:xlink="http://www.w3.org/1999/xlink" viewBox="0 0 2763.7 1956.94"><defs><style>.cls-1{isolation:isolate;}.cls-2,.cls-5,.cls-54{fill:#612f10;stroke-miterlimit:10;opacity:0.77;}.cls-2{stroke:url(#linear-gradient);}.cls-3,.cls-56,.cls-6{mix-blend-mode:hard-light;}.cls-3{fill:url(#linear-gradient-2);}.cls-4{fill:#fff;}.cls-4,.cls-53{mix-blend-mode:color-dodge;}.cls-5{stroke:url(#linear-gradient-3);}.cls-6{fill:url(#linear-gradient-4);}.cls-7{fill:#acc043;}.cls-8{fill:#8ba132;}.cls-9{fill:#9caf3b;}.cls-10{fill:#445813;}.cls-11{fill:#80952e;}.cls-12{fill:#516715;}.cls-13{fill:#798d2e;}.cls-14{fill:#87829b;}.cls-15{fill:#306e83;}.cls-16{fill:#235868;}.cls-17{fill:#c5c3c4;}.cls-18{fill:#42909b;}.cls-19{fill:#777b89;}.cls-20{fill:#92959c;}.cls-21{fill:#c9c0c0;}.cls-22{fill:#4592a4;}.cls-23{fill:#599ba9;}.cls-24{fill:#c4d16f;}.cls-25{fill:#a3c03b;}.cls-26{fill:#adc040;}.cls-27{fill:#899d2e;}.cls-28{fill:#adbf45;}.cls-29{fill:#95aa35;}.cls-30{fill:#afc148;}.cls-31{fill:#347585;}.cls-32{fill:#3c8395;}.cls-33{fill:#3a7d90;}.cls-34{fill:#889b30;}.cls-35{fill:#a9bb4d;}.cls-36{fill:#a3b643;}.cls-37{fill:#b1c252;}.cls-38{fill:#ccd77b;}.cls-39{fill:#5f9aaa;}.cls-40{fill:#4991a0;}.cls-41{fill:#bcca68;}.cls-42{fill:#689dab;}.cls-43{fill:#337488;}.cls-44{fill:#397c8f;}.cls-45{fill:#859a31;}.cls-46{fill:#47889a;}.cls-47{fill:#83aeb7;}.cls-48{fill:#73a1ad;}.cls-49{fill:#508fa0;}.cls-50{fill:#35788b;}.cls-51{fill:#5f6478;}.cls-52,.cls-53,.cls-55{fill:#ff931e;}.cls-52{mix-blend-mode:soft-light;}.cls-54{stroke:url(#linear-gradient-5);}.cls-55{opacity:0.57;mix-blend-mode:darken;}.cls-56{fill:url(#linear-gradient-6);}</style><linearGradient id="linear-gradient" x1="-1912.86" y1="464.55" x2="-1155.18" y2="464.55" gradientTransform="matrix(-1, 0.03, 0.03, 1, -107.79, 148.52)" gradientUnits="userSpaceOnUse"><stop offset="0" stop-color="#fff"/><stop offset="1"/></linearGradient><linearGradient id="linear-gradient-2" x1="-1426.39" y1="615.11" x2="-1426.39" y2="407.74" gradientTransform="matrix(-1, 0.03, 0.03, 1, -107.79, 148.52)" gradientUnits="userSpaceOnUse"><stop offset="0.13" stop-color="#fff1bf"/><stop offset="0.19" stop-color="#ffe3a7"/><stop offset="0.31" stop-color="#ffcb7d"/><stop offset="0.43" stop-color="#ffb65b"/><stop offset="0.55" stop-color="#ffa740"/><stop offset="0.68" stop-color="#ff9c2d"/><stop offset="0.81" stop-color="#ff9522"/><stop offset="0.94" stop-color="#ff931e"/></linearGradient><linearGradient id="linear-gradient-3" x1="-2034.14" y1="943.02" x2="-1686.3" y2="943.02" gradientTransform="matrix(-1, 0, 0, 1, -16.35, 0)" xlink:href="#linear-gradient"/><linearGradient id="linear-gradient-4" x1="-1803.29" y1="1100.9" x2="-1803.29" y2="893.99" gradientTransform="matrix(-1, 0, 0, 1, -16.35, 0)" gradientUnits="userSpaceOnUse"><stop offset="0.06" stop-color="#fff1bf"/><stop offset="0.13" stop-color="#ffe3a7"/><stop offset="0.26" stop-color="#ffcb7d"/><stop offset="0.4" stop-color="#ffb65b"/><stop offset="0.54" stop-color="#ffa740"/><stop offset="0.68" stop-color="#ff9c2d"/><stop offset="0.83" stop-color="#ff9522"/><stop offset="0.98" stop-color="#ff931e"/></linearGradient><linearGradient id="linear-gradient-5" x1="-2780.04" y1="574.95" x2="-1022.99" y2="574.95" gradientTransform="matrix(-1, 0, 0, 1, -16.35, 0)" xlink:href="#linear-gradient"/><linearGradient id="linear-gradient-6" x1="-2421.58" y1="667.42" x2="-1045.32" y2="667.42" gradientTransform="matrix(-1, 0, 0, 1, -16.35, 0)" gradientUnits="userSpaceOnUse"><stop offset="0.15" stop-color="#ff931e"/><stop offset="0.27" stop-color="#ff9e31"/><stop offset="0.52" stop-color="#ffbb62"/><stop offset="0.86" stop-color="#ffe9b0"/><stop offset="0.92" stop-color="#fff1bf"/></linearGradient></defs><title>Asset 6EarthHit</title><g class="cls-1"><g id="Layer_2" data-name="Layer 2"><g id="Layer_1-2" data-name="Layer 1"><path class="cls-2" d="M1641,437.3c-54.11,22.83-107.7,46.37-161.19,69.95s-106.67,47.5-159.56,71.63-105.41,48.59-157.12,73.71l-93.85,96,149-47.09.85-.36,149.76-78,149.56-78.25,149.56-78.24,141.8-88.89S1695.1,414.39,1641,437.3Z"/><polygon class="cls-3" points="1164.29 671.01 1558.94 502.22 1201.75 693.39 1110.03 724.32 1164.29 671.01"/><polygon class="cls-4" points="1197.56 678.19 1186.98 696.5 1134.54 707.73 1169.85 671.45 1197.56 678.19"/><path class="cls-5" d="M1931.09,838.12c-26.11,21.54-51.77,43.43-77.35,65.34s-50.92,44-76,66.15-49.94,44.49-74.15,67.1l-32.45,72.09,75.51-49.58.41-.34,68.91-68.72,68.74-68.84,68.74-68.85,61.83-74.31S1957.17,816.55,1931.09,838.12Z"/><polygon class="cls-6" points="1699.21 1059.18 1894.77 893.99 1726.45 1067.75 1679.13 1100.9 1699.21 1059.18"/><polygon class="cls-7" points="857.31 544.8 1086.4 630.71 928.9 773.89 664.01 659.35 857.31 544.8"/><polygon class="cls-8" points="1478.36 1094.27 1084.61 632.5 927.11 775.68 1478.36 1094.27"/><polygon class="cls-9" points="1435.41 1276.82 1478.36 1094.27 1058.36 851.54 1435.41 1276.82"/><polygon class="cls-10" points="1005.86 1921.15 1267.17 1738.59 1370.97 1527.39 1005.86 1921.15"/><polygon class="cls-11" points="1435.41 1276.82 1370.97 1527.39 1188.42 1323.36 1435.41 1276.82"/><polygon class="cls-12" points="1005.86 1921.15 1110.96 1577 1188.42 1323.36 1370.97 1527.39 1005.86 1921.15"/><polygon class="cls-13" points="927.11 1598.98 1109.66 1577.51 1005.86 1921.15 927.11 1598.98"/><polygon class="cls-14" points="508.3 1956.94 1005.86 1921.15 361.54 1824.5 508.3 1956.94"/><polygon class="cls-15" points="927.11 1598.98 596.63 1859.76 1005.86 1921.15 927.11 1598.98"/><polygon class="cls-16" points="361.54 1824.5 168.24 1688.47 264.89 1824.5 361.54 1824.5"/><polygon class="cls-17" points="873.41 546.59 422.39 571.65 662.22 600.29 873.41 546.59"/><polygon class="cls-18" points="662.22 661.14 662.22 600.29 857.31 544.8 662.22 661.14"/><polygon class="cls-19" points="422.39 575.23 662.22 661.14 662.22 600.29 422.39 575.23"/><polygon class="cls-20" points="400.91 661.14 422.39 575.23 662.22 661.14 400.91 661.14"/><polygon class="cls-21" points="143.18 772.11 422.39 575.23 400.91 661.14 143.18 772.11"/><polygon class="cls-22" points="662.22 661.14 143.18 772.11 400.91 661.14 662.22 661.14"/><polygon class="cls-23" points="665.8 879.49 662.22 661.14 125.28 772.11 665.8 879.49"/><polygon class="cls-24" points="497.56 1011.94 665.8 879.49 125.28 772.11 497.56 1011.94"/><polygon class="cls-25" points="0 968.98 125.28 772.11 497.56 1011.94 0 968.98"/><polygon class="cls-26" points="0 1437.9 187.3 985.15 0 968.98 0 1437.9"/><polygon class="cls-27" points="168.24 1688.47 0 1437.9 125.28 1135.07 168.24 1688.47"/><polygon class="cls-28" points="497.56 1011.94 125.28 1133.64 187.93 981.51 497.56 1011.94"/><polygon class="cls-29" points="264.89 1323.36 125.28 1133.64 497.56 1011.94 264.89 1323.36"/><polygon class="cls-30" points="146.01 1402.11 264.89 1323.36 125.28 1133.64 146.01 1402.11"/><polygon class="cls-31" points="361.54 1824.5 143.18 1402.11 168.24 1688.47 361.54 1824.5"/><polygon class="cls-32" points="264.89 1323.36 143.18 1402.11 361.54 1824.5 264.89 1323.36"/><polygon class="cls-33" points="597.79 1860.29 597.79 1577.51 361.54 1824.5 597.79 1860.29"/><polygon class="cls-34" points="264.89 1323.36 597.79 1577.51 361.54 1824.5 264.89 1323.36"/><polygon class="cls-35" points="497.56 1011.94 665.8 1266.09 264.89 1323.36 497.56 1011.94"/><polygon class="cls-36" points="758.87 1011.94 497.56 1011.94 665.8 1266.09 758.87 1011.94"/><polygon class="cls-37" points="597.79 1577.51 264.89 1323.36 665.8 1266.09 597.79 1577.51"/><polygon class="cls-33" points="927.11 1598.98 597.79 1577.51 597.79 1860.29 927.11 1598.98"/><polygon class="cls-38" points="1059.55 850.86 1188.42 1323.36 1435.41 1276.82 1059.55 850.86"/><polygon class="cls-39" points="927.11 772.11 665.8 879.49 662.22 661.14 927.11 772.11"/><polygon class="cls-40" points="1059.55 850.86 665.8 879.49 927.11 772.11 1059.55 850.86"/><polygon class="cls-41" points="497.56 1011.94 665.8 879.49 758.87 1011.94 497.56 1011.94"/><polygon class="cls-42" points="794.66 870.12 665.8 879.49 758.87 1011.94 794.66 870.12"/><polygon class="cls-43" points="927.11 1598.98 859.1 1437.9 620.86 1471.87 597.79 1577.51 927.11 1598.98"/><polygon class="cls-44" points="1145.95 1167.65 859.1 1437.9 927.11 1598.98 1145.95 1167.65"/><polygon class="cls-45" points="1109.66 1577.51 1188.42 1313.22 1145.46 1165.86 927.11 1598.98 1109.66 1577.51"/><polygon class="cls-46" points="758.87 1011.94 873.41 1165.86 665.8 1266.09 758.87 1011.94"/><polygon class="cls-47" points="859.1 1437.9 617.48 1482.65 665.8 1266.09 859.1 1437.9"/><polygon class="cls-48" points="873.41 1165.86 859.1 1437.9 665.8 1266.09 873.41 1165.86"/><polygon class="cls-49" points="1145.46 1165.86 873.41 1165.86 859.1 1437.9 1145.46 1165.86"/><polygon class="cls-46" points="1059.55 850.86 873.41 1165.86 1145.46 1165.86 1059.55 850.86"/><polygon class="cls-50" points="794.66 868.75 1059.55 850.86 873.41 1165.86 758.87 1011.94 794.66 868.75"/><polygon class="cls-51" points="510.09 1955.15 363.33 1822.71 266.68 1822.71 510.09 1955.15"/><polygon class="cls-52" points="1309.23 1486.05 680.07 1281.59 1109.78 697.51 1309.23 1486.05"/><polygon class="cls-53" points="1188 1322.8 813.1 1200.97 1069.15 852.93 1188 1322.8"/><path class="cls-54" d="M2349.11,194.28C2218.18,266.85,2088.75,341.39,1959.58,416s-257.45,150.25-385,226.41c-127.24,76.46-254,153.25-378.25,232.15L1008,1148.8l340.57-139.32,2-1.15,358.53-243.65,358-244.34,358-244.34L2760.65,1.84S2479.9,121.52,2349.11,194.28Z"/><polygon class="cls-55" points="1106.45 1212.99 902.58 1146.74 1041.82 957.48 1106.45 1212.99"/><polygon class="cls-56" points="1187.02 919.02 2405.23 202.5 1314.69 997.45 1028.98 1132.34 1187.02 919.02"/><polygon class="cls-4" points="1308.99 923.87 1281.07 1002.89 1084.93 1084.74 1196.14 917.71 1308.99 923.87"/><polygon class="cls-52" points="1250.23 834.05 909 673.8 1084 632.8 1250.23 834.05"/><polygon class="cls-53" points="1205 781.8 1017 693.8 1084 632.8 1205 781.8"/><polygon class="cls-53" points="1205 781.8 1017 693.8 1084 632.8 1205 781.8"/><polygon class="cls-55" points="1181.34 749.01 1071.95 697.8 1110.94 662.31 1181.34 749.01"/><path class="cls-2" d="M1641,437.3c-54.11,22.83-107.7,46.37-161.19,69.95s-106.67,47.5-159.56,71.63-105.41,48.59-157.12,73.71l-93.85,96,149-47.09.85-.36,149.76-78,149.56-78.25,149.56-78.24,141.8-88.89S1695.1,414.39,1641,437.3Z"/><polygon class="cls-3" points="1164.29 671.01 1558.94 502.22 1201.75 693.39 1110.03 724.32 1164.29 671.01"/><polygon class="cls-4" points="1197.56 678.19 1186.98 696.5 1134.54 707.73 1169.85 671.45 1197.56 678.19"/><path class="cls-5" d="M1931.09,838.12c-26.11,21.54-51.77,43.43-77.35,65.34s-50.92,44-76,66.15-49.94,44.49-74.15,67.1l-32.45,72.09,75.51-49.58.41-.34,68.91-68.72,68.74-68.84,68.74-68.85,61.83-74.31S1957.17,816.55,1931.09,838.12Z"/><polygon class="cls-6" points="1699.21 1059.18 1894.77 893.99 1726.45 1067.75 1679.13 1100.9 1699.21 1059.18"/><polygon class="cls-52" points="1309.23 1486.05 680.07 1281.59 1109.78 697.51 1309.23 1486.05"/><polygon class="cls-53" points="1188 1322.8 813.1 1200.97 1069.15 852.93 1188 1322.8"/><path class="cls-54" d="M2349.11,194.28C2218.18,266.85,2088.75,341.39,1959.58,416s-257.45,150.25-385,226.41c-127.24,76.46-254,153.25-378.25,232.15L1008,1148.8l340.57-139.32,2-1.15,358.53-243.65,358-244.34,358-244.34L2760.65,1.84S2479.9,121.52,2349.11,194.28Z"/><polygon class="cls-55" points="1106.45 1212.99 902.58 1146.74 1041.82 957.48 1106.45 1212.99"/><polygon class="cls-56" points="1187.02 919.02 2405.23 202.5 1314.69 997.45 1028.98 1132.34 1187.02 919.02"/><polygon class="cls-4" points="1308.99 923.87 1281.07 1002.89 1084.93 1084.74 1196.14 917.71 1308.99 923.87"/><polygon class="cls-52" points="1250.23 834.05 909 673.8 1084 632.8 1250.23 834.05"/><polygon class="cls-53" points="1205 781.8 1017 693.8 1084 632.8 1205 781.8"/><polygon class="cls-53" points="1205 781.8 1017 693.8 1084 632.8 1205 781.8"/><polygon class="cls-55" points="1181.34 749.01 1071.95 697.8 1110.94 662.31 1181.34 749.01"/></g></g></g></svg>