<svg xmlns="http://www.w3.org/2000/svg" viewBox="0 0 1908.84 1823.33"><defs><style>.cls-1{fill:#acc043;}.cls-2{fill:#8ba132;}.cls-3{fill:#9caf3b;}.cls-4{fill:#445813;}.cls-5{fill:#80952e;}.cls-6{fill:#516715;}.cls-7{fill:#798d2e;}.cls-8{fill:#87829b;}.cls-9{fill:#306e83;}.cls-10{fill:#235868;}.cls-11{fill:#c5c3c4;}.cls-12{fill:#42909b;}.cls-13{fill:#777b89;}.cls-14{fill:#92959c;}.cls-15{fill:#c9c0c0;}.cls-16{fill:#4592a4;}.cls-17{fill:#599ba9;}.cls-18{fill:#c4d16f;}.cls-19{fill:#a3c03b;}.cls-20{fill:#adc040;}.cls-21{fill:#899d2e;}.cls-22{fill:#adbf45;}.cls-23{fill:#95aa35;}.cls-24{fill:#afc148;}.cls-25{fill:#347585;}.cls-26{fill:#3c8395;}.cls-27{fill:#3a7d90;}.cls-28{fill:#889b30;}.cls-29{fill:#a9bb4d;}.cls-30{fill:#a3b643;}.cls-31{fill:#b1c252;}.cls-32{fill:#ccd77b;}.cls-33{fill:#5f9aaa;}.cls-34{fill:#4991a0;}.cls-35{fill:#bcca68;}.cls-36{fill:#689dab;}.cls-37{fill:#337488;}.cls-38{fill:#397c8f;}.cls-39{fill:#859a31;}.cls-40{fill:#47889a;}.cls-41{fill:#83aeb7;}.cls-42{fill:#73a1ad;}.cls-43{fill:#508fa0;}.cls-44{fill:#35788b;}.cls-45{fill:#5f6478;}</style></defs><title>Earth</title><g id="Layer_2" data-name="Layer 2"><g id="Layer_1-2" data-name="Layer 1"><polygon class="cls-1" points="801.9 0 506.1 110.92 709.46 295.8 1051.48 147.9 801.9 0"/><polyline class="cls-2" points="0 709.46 508.41 113.24 711.77 298.11 0 709.46"/><polyline class="cls-3" points="0 709.46 542.3 396.05 55.46 945.17"/><polygon class="cls-4" points="610.09 1777.11 272.69 1541.4 138.66 1268.71 610.09 1777.11"/><polyline class="cls-5" points="55.46 945.17 138.66 1268.71 374.37 1005.26 55.46 945.17"/><polygon class="cls-6" points="610.09 1777.11 474.38 1332.75 374.37 1005.26 138.66 1268.71 610.09 1777.11"/><polygon class="cls-7" points="711.77 1361.14 476.05 1333.41 610.09 1777.11 711.77 1361.14"/><polygon class="cls-8" points="1252.53 1823.33 610.09 1777.11 1442.03 1652.32 1252.53 1823.33"/><polygon class="cls-9" points="711.77 1361.14 1138.47 1697.86 610.09 1777.11 711.77 1361.14"/><polygon class="cls-10" points="1442.03 1652.32 1691.61 1476.69 1566.82 1652.32 1442.03 1652.32"/><polygon class="cls-11" points="781.1 2.31 1363.45 34.66 1053.79 71.64 781.1 2.31"/><polygon class="cls-12" points="1053.79 150.21 1053.79 71.64 801.9 0 1053.79 150.21"/><polygon class="cls-13" points="1363.45 39.29 1053.79 150.21 1053.79 71.64 1363.45 39.29"/><polygon class="cls-14" points="1391.18 150.21 1363.45 39.29 1053.79 150.21 1391.18 150.21"/><polygon class="cls-15" points="1723.96 293.49 1363.45 39.29 1391.18 150.21 1723.96 293.49"/><polygon class="cls-16" points="1053.79 150.21 1723.96 293.49 1391.18 150.21 1053.79 150.21"/><polygon class="cls-17" points="1049.17 432.15 1053.79 150.21 1747.07 293.49 1049.17 432.15"/><polygon class="cls-18" points="1266.39 603.15 1049.17 432.15 1747.07 293.49 1266.39 603.15"/><polygon class="cls-19" points="1908.84 547.69 1747.07 293.49 1266.39 603.15 1908.84 547.69"/><polygon class="cls-20" points="1908.84 1153.16 1666.99 568.57 1908.84 547.69 1908.84 1153.16"/><polygon class="cls-21" points="1691.61 1476.69 1908.84 1153.16 1747.07 762.14 1691.61 1476.69"/><polygon class="cls-22" points="1266.39 603.15 1747.07 760.3 1666.19 563.87 1266.39 603.15"/><polygon class="cls-23" points="1566.82 1005.26 1747.07 760.3 1266.39 603.15 1566.82 1005.26"/><polygon class="cls-24" points="1720.31 1106.94 1566.82 1005.26 1747.07 760.3 1720.31 1106.94"/><polygon class="cls-25" points="1442.03 1652.32 1723.96 1106.94 1691.61 1476.69 1442.03 1652.32"/><polygon class="cls-26" points="1566.82 1005.26 1723.96 1106.94 1442.03 1652.32 1566.82 1005.26"/><polygon class="cls-27" points="1136.98 1698.54 1136.98 1333.41 1442.03 1652.32 1136.98 1698.54"/><polygon class="cls-28" points="1566.82 1005.26 1136.98 1333.41 1442.03 1652.32 1566.82 1005.26"/><polygon class="cls-29" points="1266.39 603.15 1049.17 931.31 1566.82 1005.26 1266.39 603.15"/><polygon class="cls-30" points="929 603.15 1266.39 603.15 1049.17 931.31 929 603.15"/><polygon class="cls-31" points="1136.98 1333.41 1566.82 1005.26 1049.17 931.31 1136.98 1333.41"/><polygon class="cls-27" points="711.77 1361.14 1136.98 1333.41 1136.98 1698.54 711.77 1361.14"/><polyline class="cls-32" points="55.46 945.17 540.76 395.17 374.37 1005.26 55.46 945.17"/><polygon class="cls-33" points="711.77 293.49 1049.17 432.15 1053.79 150.21 711.77 293.49"/><polygon class="cls-34" points="540.76 395.17 1049.17 432.15 711.77 293.49 540.76 395.17"/><polygon class="cls-35" points="1266.39 603.15 1049.17 432.15 929 603.15 1266.39 603.15"/><polygon class="cls-36" points="882.78 420.05 1049.17 432.15 929 603.15 882.78 420.05"/><polygon class="cls-37" points="711.77 1361.14 799.59 1153.16 1107.19 1197.01 1136.98 1333.41 711.77 1361.14"/><polygon class="cls-38" points="429.2 804.21 799.59 1153.16 711.77 1361.14 429.2 804.21"/><polygon class="cls-39" points="476.05 1333.41 374.37 992.16 429.83 801.9 711.77 1361.14 476.05 1333.41"/><polygon class="cls-40" points="929 603.15 781.1 801.9 1049.17 931.31 929 603.15"/><polygon class="cls-41" points="799.59 1153.16 1111.56 1210.93 1049.17 931.31 799.59 1153.16"/><polygon class="cls-42" points="781.1 801.9 799.59 1153.16 1049.17 931.31 781.1 801.9"/><polygon class="cls-43" points="429.83 801.9 781.1 801.9 799.59 1153.16 429.83 801.9"/><polygon class="cls-40" points="540.76 395.17 781.1 801.9 429.83 801.9 540.76 395.17"/><polygon class="cls-44" points="882.78 418.28 540.76 395.17 781.1 801.9 929 603.15 882.78 418.28"/><polygon class="cls-45" points="1250.22 1821.02 1439.71 1650.01 1564.51 1650.01 1250.22 1821.02"/></g></g></svg>