<svg xmlns="http://www.w3.org/2000/svg" viewBox="0 0 281 286"><defs><style>.cls-1{fill:#a15e1f;}.cls-2{fill:#99651c;}.cls-3{fill:#97561d;}.cls-4{fill:#713b13;}.cls-5{fill:#8f491a;}.cls-6{fill:#7b4615;}.cls-7{fill:#fce585;}.cls-8{fill:#f5da7d;}.cls-9{fill:#fde68c;}.cls-10{fill:#fee789;}.cls-11{fill:#fce587;}.cls-12{fill:#a1601f;}.cls-13{fill:#773b14;}.cls-14{fill:#321304;}.cls-15{fill:#3e4c49;}.cls-16{fill:#100c09;}.cls-17{fill:#252931;}.cls-18{fill:#0d0d0d;}.cls-19{fill:#140f0c;}.cls-20{fill:#2b3033;}.cls-21{fill:#282f37;}.cls-22{fill:#1e1e20;}.cls-23{fill:#313a40;}.cls-24{fill:#1f2326;}.cls-25{fill:#181412;}.cls-26{fill:#0f0f0f;}.cls-27{fill:#0c0c0c;}.cls-28{fill:#151515;}.cls-29{fill:#0f0a07;}.cls-30{fill:#20201f;}.cls-31{fill:#121210;}.cls-32{fill:#222223;}.cls-33{fill:#17161a;}</style></defs><title>Hedgehog</title><g id="Layer_2" data-name="Layer 2"><g id="Layer_1-2" data-name="Layer 1"><polygon class="cls-1" points="89 128 126 120 203 155 89 128"/><polygon class="cls-2" points="58 185 89 128 203 155 58 185"/><polygon class="cls-3" points="76 218 58 185 203 155 76 218"/><polygon class="cls-4" points="182 244 144 252 76 218 182 244"/><polygon class="cls-5" points="203 155 216 192 76 218 203 155"/><polygon class="cls-6" points="182 244 216 192 76 218 182 244"/><polygon class="cls-7" points="51 108 63 84 89 128 51 108"/><polygon class="cls-8" points="117 47 63 84 89 128 117 47"/><polygon class="cls-9" points="158 38 117 47 89 128 158 38"/><polygon class="cls-10" points="198 56 158 38 89 128 198 56"/><polygon class="cls-11" points="193 74 198 56 89 128 123 120 193 74"/><polygon class="cls-12" points="228 72 198 56 193 74 203 155 228 72"/><polygon class="cls-13" points="246 202 216 192 203 155 228 72 246 202"/><polygon class="cls-14" points="246 106 228 72 246 202 254 172 246 106"/><polygon class="cls-15" points="41 105 31 128 89 128 41 105"/><polygon class="cls-16" points="31 128 55 185 89 128 31 128"/><polygon class="cls-17" points="41 105 0 128 31 128 41 105"/><polygon class="cls-18" points="55 185 6 151 0 128 31 128 55 185"/><polygon class="cls-19" points="123 119.05 183.36 102.78 206 157 123 119.05"/><polygon class="cls-20" points="195.22 67 123 119.05 183.36 102.78 195.22 67"/><polygon class="cls-21" points="205.27 154.93 183.67 103.21 194.99 67 205.27 154.93"/><polygon class="cls-22" points="56.43 87.37 117.8 46.42 76.62 35.05 56.43 87.37"/><polygon class="cls-23" points="41.81 47.59 55.58 32.37 76.62 35.05 56.43 87.37 41.81 47.59"/><polygon class="cls-24" points="158 38 198 56 219 0 195 0 158 38"/><polygon class="cls-25" points="228 72 198 56 219 0 231 14 228 72"/><polygon class="cls-26" points="76.07 217.95 62.96 269.92 69.93 285.93 100.25 230.1 76.07 217.95"/><polygon class="cls-27" points="140 252 70 286 100 230 140 252"/><polygon class="cls-28" points="116.94 281.03 69.93 285.93 140 252.08 116.94 281.03"/><polygon class="cls-29" points="216 192 254 258 241 262 219 258 182 244 216 192"/><polygon class="cls-30" points="246 202 216 192 254 258 261 244 246 202"/><polygon class="cls-31" points="246 106 281 140 250.12 140 246 106"/><polygon class="cls-32" points="252.07 179.25 281 165 252.61 160.55 252.07 179.25"/><polygon class="cls-33" points="281 140 281 165 252 161 250 140 281 140"/></g></g></svg>