<svg xmlns="http://www.w3.org/2000/svg" viewBox="0 0 449 661"><defs><style>.cls-1{fill:#dbb156;}.cls-2{fill:#f8f9f8;}.cls-3{fill:#e3e5e3;}.cls-4{fill:#cfb053;}.cls-5{fill:#beba8d;}.cls-6{fill:#e2c368;}.cls-7{fill:#e6c084;}.cls-8{fill:#dfbe5c;}.cls-9{fill:#d5bd47;}.cls-10{fill:#caad2d;}.cls-11{fill:#b59a30;}.cls-12{fill:#ccad33;}.cls-13{fill:#e2c741;}.cls-14{fill:#cdab2e;}.cls-15{fill:#dead41;}.cls-16{fill:#ced27f;}.cls-17{fill:#d5d990;}.cls-18{fill:#dad97a;}.cls-19{fill:#e4d660;}.cls-20{fill:#050504;}.cls-21{fill:#f2f2f2;}</style></defs><title>Mapcam_1</title><g id="Layer_2" data-name="Layer 2"><g id="Layer_1-2" data-name="Layer 1"><polygon class="cls-1" points="8 562 87 547 87 566 8 562"/><polygon class="cls-2" points="246 457 446 452 249 661 246 457"/><polygon class="cls-3" points="449 656 249 661 446 452 449 656"/><polygon class="cls-4" points="87 343 353 339 356 452 87 343"/><polygon class="cls-5" points="87 343 87 547 356 452 87 343"/><polygon class="cls-6" points="87 547 247.32 552 246 490.85 87 547"/><polygon class="cls-7" points="87 547 249 661 247 552 87 547"/><polygon class="cls-8" points="87 547 83 656 249 661 87 547"/><polygon class="cls-9" points="83 656 0 647 8 562 83 656"/><polygon class="cls-10" points="8 562 86.32 565.49 83 656 8 562"/><polygon class="cls-11" points="87 343 69 342 72 326 87 343"/><polygon class="cls-12" points="72 326 205 310 87 343 72 326"/><polygon class="cls-13" points="205 310 294.65 339.88 87 343 205 310"/><polygon class="cls-14" points="205 310 346 314 295 340 205 310"/><polygon class="cls-15" points="346 314 353 339 295 340 346 314"/><polygon class="cls-6" points="346 314 368 326 353 339 346 314"/><polygon class="cls-16" points="205 310 200 21 227 92 205 310"/><polygon class="cls-17" points="227 92 205 310 324 314 227 92"/><polygon class="cls-18" points="227 92 285 162 324 314 227 92"/><polygon class="cls-19" points="285.34 163.33 321 196 324 314 285.34 163.33"/><polygon class="cls-13" points="285 163 321 161 321 196 285 163"/><polygon class="cls-20" points="200 21 205 0 230 4 265 36 303 99 317 137 321 161 285 163 227 92 200 21"/><polygon class="cls-21" points="181.88 343 182 445 355.81 445 181.88 343"/><polygon class="cls-3" points="182 343 353 343 356 445 182 343"/><polygon class="cls-20" points="285 163 307 171 321 171 321 161 285 163"/></g></g></svg>