<svg xmlns="http://www.w3.org/2000/svg" viewBox="0 0 1715.79 1638.93"><defs><style>.cls-1{opacity:0.07;}.cls-2{fill:#a5a7a8;}</style></defs><title>Asset 5MeteorScatterAtmosphereForEarth</title><g id="Layer_2" data-name="Layer 2"><g id="Layer_1-2" data-name="Layer 1"><g class="cls-1"><polygon class="cls-2" points="720.8 0 454.91 99.71 637.71 265.88 945.14 132.94 720.8 0"/><polyline class="cls-2" points="0 637.71 456.99 101.78 639.79 267.96 0 637.71"/><polyline class="cls-2" points="0 637.71 487.46 356 49.85 849.59"/><polygon class="cls-2" points="548.39 1597.39 245.11 1385.51 124.63 1140.4 548.39 1597.39"/><polyline class="cls-2" points="49.85 849.59 124.63 1140.4 336.51 903.59 49.85 849.59"/><polygon class="cls-2" points="548.39 1597.39 426.41 1197.97 336.51 903.59 124.63 1140.4 548.39 1597.39"/><polygon class="cls-2" points="639.79 1223.49 427.91 1198.56 548.39 1597.39 639.79 1223.49"/><polygon class="cls-2" points="1125.86 1638.93 548.39 1597.39 1296.19 1485.22 1125.86 1638.93"/><polygon class="cls-2" points="639.79 1223.49 1023.33 1526.15 548.39 1597.39 639.79 1223.49"/><polygon class="cls-2" points="1296.19 1485.22 1520.53 1327.35 1408.36 1485.22 1296.19 1485.22"/><polygon class="cls-2" points="702.1 2.08 1225.56 31.16 947.22 64.39 702.1 2.08"/><polygon class="cls-2" points="947.22 135.02 947.22 64.39 720.8 0 947.22 135.02"/><polygon class="cls-2" points="1225.56 35.31 947.22 135.02 947.22 64.39 1225.56 35.31"/><polygon class="cls-2" points="1250.49 135.02 1225.56 35.31 947.22 135.02 1250.49 135.02"/><polygon class="cls-2" points="1549.61 263.81 1225.56 35.31 1250.49 135.02 1549.61 263.81"/><polygon class="cls-2" points="947.22 135.02 1549.61 263.81 1250.49 135.02 947.22 135.02"/><polygon class="cls-2" points="943.06 388.44 947.22 135.02 1570.38 263.81 943.06 388.44"/><polygon class="cls-2" points="1138.32 542.16 943.06 388.44 1570.38 263.81 1138.32 542.16"/><polygon class="cls-2" points="1715.79 492.3 1570.38 263.81 1138.32 542.16 1715.79 492.3"/><polygon class="cls-2" points="1715.79 1036.54 1498.4 511.07 1715.79 492.3 1715.79 1036.54"/><polygon class="cls-2" points="1520.53 1327.35 1715.79 1036.54 1570.38 685.06 1520.53 1327.35"/><polygon class="cls-2" points="1138.32 542.16 1570.38 683.41 1497.68 506.84 1138.32 542.16"/><polygon class="cls-2" points="1408.36 903.59 1570.38 683.41 1138.32 542.16 1408.36 903.59"/><polygon class="cls-2" points="1546.33 994.99 1408.36 903.59 1570.38 683.41 1546.33 994.99"/><polygon class="cls-2" points="1296.19 1485.22 1549.61 994.99 1520.53 1327.35 1296.19 1485.22"/><polygon class="cls-2" points="1408.36 903.59 1549.61 994.99 1296.19 1485.22 1408.36 903.59"/><polygon class="cls-2" points="1022 1526.76 1022 1198.56 1296.19 1485.22 1022 1526.76"/><polygon class="cls-2" points="1408.36 903.59 1022 1198.56 1296.19 1485.22 1408.36 903.59"/><polygon class="cls-2" points="1138.32 542.16 943.06 837.12 1408.36 903.59 1138.32 542.16"/><polygon class="cls-2" points="835.04 542.16 1138.32 542.16 943.06 837.12 835.04 542.16"/><polygon class="cls-2" points="1022 1198.56 1408.36 903.59 943.06 837.12 1022 1198.56"/><polygon class="cls-2" points="639.79 1223.49 1022 1198.56 1022 1526.76 639.79 1223.49"/><polyline class="cls-2" points="49.85 849.59 486.07 355.21 336.51 903.59 49.85 849.59"/><polygon class="cls-2" points="639.79 263.81 943.06 388.44 947.22 135.02 639.79 263.81"/><polygon class="cls-2" points="486.07 355.21 943.06 388.44 639.79 263.81 486.07 355.21"/><polygon class="cls-2" points="1138.32 542.16 943.06 388.44 835.04 542.16 1138.32 542.16"/><polygon class="cls-2" points="793.5 377.56 943.06 388.44 835.04 542.16 793.5 377.56"/><polygon class="cls-2" points="639.79 1223.49 718.72 1036.54 995.22 1075.95 1022 1198.56 639.79 1223.49"/><polygon class="cls-2" points="385.8 722.88 718.72 1036.54 639.79 1223.49 385.8 722.88"/><polygon class="cls-2" points="427.91 1198.56 336.51 891.82 386.36 720.8 639.79 1223.49 427.91 1198.56"/><polygon class="cls-2" points="835.04 542.16 702.1 720.8 943.06 837.12 835.04 542.16"/><polygon class="cls-2" points="718.72 1036.54 999.15 1088.47 943.06 837.12 718.72 1036.54"/><polygon class="cls-2" points="702.1 720.8 718.72 1036.54 943.06 837.12 702.1 720.8"/><polygon class="cls-2" points="386.36 720.8 702.1 720.8 718.72 1036.54 386.36 720.8"/><polygon class="cls-2" points="486.07 355.21 702.1 720.8 386.36 720.8 486.07 355.21"/><polygon class="cls-2" points="793.5 375.98 486.07 355.21 702.1 720.8 835.04 542.16 793.5 375.98"/><polygon class="cls-2" points="1123.78 1636.86 1294.11 1483.14 1406.28 1483.14 1123.78 1636.86"/></g></g></g></svg>