<svg xmlns="http://www.w3.org/2000/svg" xmlns:xlink="http://www.w3.org/1999/xlink" viewBox="0 0 1772 1772"><defs><style>.cls-1{isolation:isolate;}.cls-2{mask:url(#mask);}.cls-3{opacity:0.41;mix-blend-mode:overlay;fill:url(#radial-gradient);}.cls-4{fill:#c3c1b5;}.cls-5{fill:#b2b2b4;}.cls-6{fill:#aaa;}.cls-7{fill:#aaa9a5;}.cls-8{fill:#9b9b9e;}.cls-9{fill:#c3c0b7;}.cls-10{fill:#a3a3a2;}.cls-11{fill:#a09f9c;}.cls-12{filter:url(#luminosity-noclip);}</style><filter id="luminosity-noclip" x="0" y="-12863" width="1772" height="32766" filterUnits="userSpaceOnUse" color-interpolation-filters="sRGB"><feFlood flood-color="#fff" result="bg"/><feBlend in="SourceGraphic" in2="bg"/></filter><mask id="mask" x="0" y="-12863" width="1772" height="32766" maskUnits="userSpaceOnUse"><g class="cls-12"/></mask><radialGradient id="radial-gradient" cx="886" cy="886" r="886" gradientUnits="userSpaceOnUse"><stop offset="0.01" stop-color="#fff"/><stop offset="0.14" stop-color="#fff" stop-opacity="0.99"/><stop offset="0.24" stop-color="#fff" stop-opacity="0.95"/><stop offset="0.32" stop-color="#fff" stop-opacity="0.89"/><stop offset="0.4" stop-color="#fff" stop-opacity="0.8"/><stop offset="0.48" stop-color="#fff" stop-opacity="0.68"/><stop offset="0.55" stop-color="#fff" stop-opacity="0.54"/><stop offset="0.62" stop-color="#fff" stop-opacity="0.37"/><stop offset="0.68" stop-color="#fff" stop-opacity="0.18"/><stop offset="0.74" stop-color="#fff" stop-opacity="0"/></radialGradient></defs><title>Moon</title><g class="cls-1"><g id="Layer_2" data-name="Layer 2"><g id="Layer_1-2" data-name="Layer 1"><g class="cls-2"><circle class="cls-3" cx="886" cy="886" r="886"/></g><polygon class="cls-4" points="924.56 1045.99 818.93 1040.27 854.23 1010.88 924.56 1045.99"/><polygon class="cls-5" points="919.25 966.24 924.56 1045.99 854.23 1010.88 919.25 966.24"/><polygon class="cls-5" points="1037.02 881.12 919.25 966.24 910.1 912.77 1037.02 881.12"/><polygon class="cls-6" points="1012.23 983.31 924.56 1045.99 919.25 966.24 1037.02 881.12 1012.23 983.31"/><polygon class="cls-7" points="741.2 963.83 854.23 1010.88 818.93 1040.27 741.2 963.83"/><polygon class="cls-8" points="787.86 768.91 730.23 854.89 741.2 963.83 787.86 768.91"/><polygon class="cls-9" points="830.96 1001.2 841.58 933.15 787.86 768.91 741.2 963.83 830.96 1001.2"/><polygon class="cls-10" points="888.24 738.23 787.86 768.91 841.58 933.15 888.24 738.23"/><polygon class="cls-5" points="910.1 912.77 841.58 933.15 888.24 738.23 910.1 912.77"/><polygon class="cls-9" points="1037.02 881.12 888.24 738.23 910.1 912.77 1037.02 881.12"/><polygon class="cls-5" points="987.13 779.69 888.24 738.23 1037.02 881.12 987.13 779.69"/><polygon class="cls-9" points="910.1 912.77 830.61 1002.38 854.23 1010.88 919.25 966.24 910.1 912.77"/><polygon class="cls-11" points="841.58 933.15 910.1 912.77 830.61 1002.38 841.58 933.15"/></g></g></g></svg>