<svg xmlns="http://www.w3.org/2000/svg" viewBox="0 0 2012.55 1494.89"><defs><style>.cls-1{isolation:isolate;}.cls-2{fill:#405640;}.cls-3{fill:#465f46;}.cls-4{fill:#4d684d;}.cls-5{fill:#486048;}.cls-6{fill:#455e45;}.cls-7{fill:#405740;}.cls-8{fill:#4c674c;}.cls-9{fill:#79a479;}.cls-10{fill:#c0c5cf;}.cls-11{fill:#5b7c96;}.cls-12{fill:#aaabb4;}.cls-13{fill:#838692;}.cls-14{fill:#4b657f;}.cls-15{fill:#b6ac89;}.cls-16{fill:#a3a4ad;}.cls-17{fill:#6a6b70;}.cls-18{fill:#68696e;}.cls-19{fill:#1a3924;}.cls-20{fill:#656474;}.cls-21,.cls-22,.cls-23{fill:none;stroke:#fff600;stroke-miterlimit:10;stroke-width:5px;}.cls-22{stroke-dasharray:11.78 11.78;}.cls-23{stroke-dasharray:12.3 12.3;}.cls-24{fill:#7ec2d2;}.cls-25{fill:#698d9e;}.cls-26{fill:#b3c3d5;}.cls-27{fill:#e7e6ec;}.cls-28{fill:#c1c7cd;}</style></defs><title>Asset 8NewYork</title><g id="Layer_2" data-name="Layer 2"><g id="Layer_1-2" data-name="Layer 1"><g class="cls-1"><polygon class="cls-2" points="768.61 727.1 742.49 824.57 667.1 697.94 693.22 600.46 768.61 727.1"/><polygon class="cls-3" points="1167.8 1112.81 1141.68 1210.29 1077.57 1185.83 1103.69 1088.35 1167.8 1112.81"/><polygon class="cls-4" points="2012.55 1174.6 1986.43 1272.08 1731.6 1421.81 1757.72 1324.34 2012.55 1174.6"/><polygon class="cls-2" points="1226.69 1191.55 1200.57 1289.03 1141.68 1210.29 1167.8 1112.81 1226.69 1191.55"/><polygon class="cls-5" points="1538.94 1278.15 1512.82 1375.63 1200.57 1289.03 1226.69 1191.55 1538.94 1278.15"/><polygon class="cls-6" points="1609.14 1204.63 1583.02 1302.11 1554.66 1393.17 1580.78 1295.69 1609.14 1204.63"/><polygon class="cls-7" points="200.56 1007.18 174.44 1104.66 86.94 1000.63 113.06 903.15 200.56 1007.18"/><polygon class="cls-4" points="1757.72 1324.34 1731.6 1421.81 1474.27 1494.89 1500.39 1397.41 1757.72 1324.34"/><polygon class="cls-8" points="1103.69 1088.35 1077.57 1185.83 26.36 1330.59 52.48 1233.11 1103.69 1088.35"/><polygon class="cls-2" points="52.48 1233.11 26.36 1330.59 0 1253.93 26.12 1156.46 52.48 1233.11"/><polygon class="cls-9" points="1580.78 1295.69 2012.55 1174.6 1757.72 1324.34 1500.39 1397.41 1538.94 1278.15 1226.69 1191.55 1167.8 1112.81 1103.69 1088.35 52.48 1233.11 26.12 1156.46 200.56 1007.18 113.06 903.15 389.94 840.71 490.91 856.62 629.09 830.45 768.61 727.1 693.22 600.46 963.35 344.79 1346.59 290.8 1424.96 611.21 1514.6 779.38 1546.55 1022.63 1609.14 1204.63 1580.78 1295.69"/></g><polygon class="cls-10" points="1222.03 492 1222.03 348 1304.03 300 1304.03 448 1222.03 492"/><polygon class="cls-11" points="1142.03 300 1222.03 348 1222.03 492 1142.03 452 1142.03 300"/><polygon class="cls-12" points="1222.03 254 1142.03 300 1222.03 348 1304.03 300 1222.03 254"/><polygon class="cls-13" points="1230.03 359 1230.03 378 1299.03 339 1299.03 319 1230.03 359"/><polygon class="cls-13" points="1230.03 389 1230.03 408 1299.03 369 1299.03 349 1230.03 389"/><polygon class="cls-13" points="1230.03 419 1230.03 438 1299.03 399 1299.03 379 1230.03 419"/><polygon class="cls-13" points="1230.03 449 1230.03 468 1299.03 429 1299.03 409 1230.03 449"/><polygon class="cls-14" points="1150.03 321 1150.03 338 1215.03 376 1215.03 359 1150.03 321"/><polygon class="cls-14" points="1150.03 351 1150.03 368 1215.03 406 1215.03 389 1150.03 351"/><polygon class="cls-14" points="1150.03 381 1150.03 398 1215.03 436 1215.03 419 1150.03 381"/><polygon class="cls-14" points="1150.03 411 1150.03 428 1215.03 466 1215.03 449 1150.03 411"/><path class="cls-15" d="M52,1232l-29-73,176-148V919l108-28,379-38,71,98L985,809l171,142,12,162v3.19c0,.87,0-3.19-1.67,1.12L1100,1090Z"/><polygon class="cls-10" points="473.09 1143 473.09 863.47 632.26 770.29 632.26 1057.59 473.09 1143"/><polygon class="cls-11" points="317.79 770.29 473.09 863.47 473.09 1143 317.79 1065.35 317.79 770.29"/><polygon class="cls-12" points="473.09 681 317.79 770.29 473.09 863.47 632.26 770.29 473.09 681"/><polygon class="cls-13" points="575.23 834.61 577.55 871.44 622.56 846 622.56 807.18 575.23 834.61"/><polygon class="cls-13" points="536.5 857.07 488.62 884.82 488.62 921.71 537.6 894.02 536.5 857.07"/><polygon class="cls-13" points="575.23 894.61 577.55 931.44 622.56 906 622.56 867.18 575.23 894.61"/><polygon class="cls-13" points="536.5 917.07 488.62 944.82 488.62 981.71 537.6 954.02 536.5 917.07"/><polygon class="cls-13" points="575.23 954.61 577.55 991.44 622.56 966 622.56 927.18 575.23 954.61"/><polygon class="cls-13" points="536.5 977.07 488.62 1004.82 488.62 1041.71 537.6 1014.02 536.5 977.07"/><polygon class="cls-13" points="575.23 1014.61 577.55 1051.44 622.56 1026 622.56 987.18 575.23 1014.61"/><polygon class="cls-13" points="536.5 1037.07 488.62 1064.82 488.62 1101.71 537.6 1074.02 536.5 1037.07"/><polygon class="cls-14" points="376.03 836.02 333.32 811.06 333.32 844.06 376.03 869.02 376.03 836.02"/><polygon class="cls-14" points="402.03 851.23 402.03 884.23 459.5 917.82 459.5 884.82 402.03 851.23"/><polygon class="cls-14" points="376.03 896.02 333.32 871.06 333.32 904.06 376.03 929.02 376.03 896.02"/><polygon class="cls-14" points="402.03 911.23 402.03 944.23 459.5 977.82 459.5 944.82 402.03 911.23"/><polygon class="cls-14" points="376.03 956.02 333.32 931.06 333.32 964.06 376.03 989.02 376.03 956.02"/><polygon class="cls-14" points="402.03 971.23 402.03 1004.23 459.5 1037.82 459.5 1004.82 402.03 971.23"/><polygon class="cls-14" points="376.03 1016.02 333.32 991.06 333.32 1024.06 376.03 1049.03 376.03 1016.02"/><polygon class="cls-14" points="402.03 1031.22 402.03 1064.22 459.5 1097.82 459.5 1064.82 402.03 1031.22"/><g class="cls-1"><polygon class="cls-16" points="466.1 704.47 594.39 758.56 494.59 805.54 368.47 749.41 466.1 704.47"/><polygon class="cls-17" points="594.39 758.56 580.97 792.91 481.17 839.89 494.59 805.54 594.39 758.56"/><polygon class="cls-18" points="494.59 805.54 481.17 839.89 355.05 783.75 368.47 749.41 494.59 805.54"/></g><polygon class="cls-19" points="1339.28 391.58 1304.03 593 1375.03 593 1339.28 391.58"/><polygon class="cls-19" points="249.28 770.58 214.03 972 285.03 972 249.28 770.58"/><polygon class="cls-19" points="1556.28 968.58 1521.03 1170 1592.03 1170 1556.28 968.58"/><polygon class="cls-20" points="569.03 1163 1142.03 770 836.03 464 898.03 406 1299.03 788 787.03 1134 569.03 1163"/><line class="cls-21" x1="685.03" y1="1161.57" x2="689.94" y2="1158.12"/><line class="cls-22" x1="699.59" y1="1151.36" x2="1215.79" y2="789.33"/><polyline class="cls-21" points="1220.62 785.95 1225.53 782.5 1221.27 778.27"/><line class="cls-23" x1="1212.54" y1="769.61" x2="885.27" y2="444.74"/><line class="cls-21" x1="880.9" y1="440.41" x2="876.64" y2="436.18"/><path class="cls-24" d="M1339.53,987.5l-40-116,75-101-38-90,137,59s12,92,0,118,5,124,5,124l-89,83Z"/><polygon class="cls-25" points="785.03 585 830.03 611 830.03 572 807.03 537 785.03 545 785.03 585"/><polygon class="cls-26" points="830.03 519 785.03 545 807.03 537 852.03 510 830.03 519"/><polygon class="cls-27" points="875.03 545 830.03 572 807.03 537 852.03 510 875.03 545"/><polygon class="cls-28" points="875.03 587 830.03 611 830.03 572 875.03 545 875.03 587"/><polygon class="cls-25" points="785.03 695 830.03 721 830.03 682 807.03 647 785.03 655 785.03 695"/><polygon class="cls-26" points="830.03 629 785.03 655 807.03 647 852.03 620 830.03 629"/><polygon class="cls-27" points="875.03 655 830.03 682 807.03 647 852.03 620 875.03 655"/><polygon class="cls-28" points="875.03 697 830.03 721 830.03 682 875.03 655 875.03 697"/><polygon class="cls-25" points="905.03 695 950.03 721 950.03 682 927.03 647 905.03 655 905.03 695"/><polygon class="cls-26" points="950.03 629 905.03 655 927.03 647 972.03 620 950.03 629"/><polygon class="cls-27" points="995.03 655 950.03 682 927.03 647 972.03 620 995.03 655"/><polygon class="cls-28" points="995.03 697 950.03 721 950.03 682 995.03 655 995.03 697"/><polygon class="cls-25" points="1195.03 975 1240.03 1001 1240.03 962 1217.03 927 1195.03 935 1195.03 975"/><polygon class="cls-26" points="1240.03 909 1195.03 935 1217.03 927 1262.03 900 1240.03 909"/><polygon class="cls-27" points="1285.03 935 1240.03 962 1217.03 927 1262.03 900 1285.03 935"/><polygon class="cls-28" points="1285.03 977 1240.03 1001 1240.03 962 1285.03 935 1285.03 977"/><polygon class="cls-25" points="1210.03 1103 1255.03 1129 1255.03 1090 1232.03 1055 1210.03 1063 1210.03 1103"/><polygon class="cls-26" points="1255.03 1037 1210.03 1063 1232.03 1055 1277.03 1028 1255.03 1037"/><polygon class="cls-27" points="1300.03 1063 1255.03 1090 1232.03 1055 1277.03 1028 1300.03 1063"/><polygon class="cls-28" points="1300.03 1105 1255.03 1129 1255.03 1090 1300.03 1063 1300.03 1105"/><polygon class="cls-10" points="1062.03 442 1062.35 153.81 1118.03 42.08 1118.03 386.58 1062.03 442"/><polygon class="cls-11" points="1008.03 42.08 1062.35 153.81 1062.03 442 1008.03 395.89 1008.03 42.08"/><polygon class="cls-12" points="1063.03 0 1008.03 42.08 1062.35 153.81 1118.03 42.08 1063.03 0"/></g></g></svg>