<svg xmlns="http://www.w3.org/2000/svg" viewBox="0 0 1306 858.36"><defs><style>.cls-1{fill:#baa99c;}.cls-2{fill:#534a47;}.cls-3{fill:#938186;}.cls-4{fill:#b9b1aa;}.cls-5{fill:#534449;}.cls-6{fill:#787c92;}.cls-7{fill:#848799;}.cls-8{fill:#d1d2d9;}.cls-9{fill:#eae9ee;}.cls-10{fill:#f3f3f5;}.cls-11{fill:#e2e1d9;}.cls-12{fill:#432b3a;}.cls-13,.cls-20{fill:#3e2d43;}.cls-14{fill:#caccdc;}.cls-15{fill:#9d9cae;}.cls-16{fill:#7e757f;}.cls-17{fill:#261332;}.cls-18{fill:#3b0c1d;}.cls-19{fill:#64595f;}.cls-20{opacity:0.55;}.cls-21{fill:#938a8d;}.cls-22{fill:#806c76;}.cls-23{fill:#9fa9c1;}.cls-24{fill:#7e6c79;}.cls-25{fill:#9698a7;}.cls-26{fill:#9ca5bd;}.cls-27{fill:#9b9aad;}.cls-28{fill:#b6b9cb;}.cls-29{fill:#faf7f4;}.cls-30{fill:#000001;}.cls-31{fill:#564757;}.cls-32{fill:#9095a4;}.cls-33{fill:#787677;}.cls-34{fill:#5a544b;}.cls-35{fill:#757479;}.cls-36{fill:#9ca4af;}.cls-37{fill:#a8acb5;}.cls-38{fill:#cbcfd8;}.cls-39{fill:#c2c6cc;}.cls-40{fill:#758398;}.cls-41{fill:#adb5c0;}.cls-42{fill:#c8d1d5;}.cls-43{fill:#cdd4de;}.cls-44{fill:#b7bdc7;}.cls-45{fill:#938e94;}.cls-46{fill:#c0b9af;}.cls-47{fill:#bcb8af;}.cls-48{fill:#b5ab9e;}.cls-49{fill:#9d9790;}.cls-50{fill:#d4ccc4;}.cls-51{fill:#d6d0c9;}.cls-52{fill:#d5d1c8;}.cls-53{fill:#c7c3ba;}.cls-54{fill:#ced0cd;}.cls-55{fill:#c4c3bf;}.cls-56{fill:#c7c6c1;}.cls-57{fill:#bdb6aa;}.cls-58{fill:#d2d2c8;}.cls-59{fill:#d3d3d3;}.cls-60{fill:#92a1ae;}.cls-61{fill:#e4f0f4;}.cls-62{fill:#c4c5ca;}.cls-63{fill:#ada4a5;}.cls-64{fill:#4a403d;}.cls-65{fill:#67693b;}.cls-66{fill:#494929;}</style></defs><title>Observatories</title><g id="Layer_2" data-name="Layer 2"><g id="Layer_2-2" data-name="Layer 2"><polygon class="cls-1" points="1068.34 439.93 975.54 439.93 847.11 418.38 668.14 457.33 547.17 432.47 384.77 465.61 343.34 465.61 76.54 502.07 0 491.25 0 858.36 982.17 858.36 1306 858.36 1306 452.55 1068.34 439.93"/><path class="cls-2" d="M1050.94,427.5l-69.6-3.32L891,403.47s-77.89,7.46-86.52,9.27-136.37,29.67-136.37,29.67L531.38,420.78l-32.22,6.57L412.94,459l-67.11-8.28L63.33,485.29,2.8,475.56l-2.8.18v49.1l1306,4.36V438.55Z"/></g><g id="Layer_3" data-name="Layer 3"><path class="cls-3" d="M0,599.53l1005-53.17,300.34.45.66,311.55H0Z"/><polygon class="cls-4" points="846.66 588.91 758 595.01 960.17 702.36 1223.66 637.1 1112.63 582.81 846.66 588.91"/><polygon class="cls-5" points="938.83 374.06 926.32 366.55 913.81 374.06 892.54 496.24 1021.4 496.66 1028.91 360.29 960.62 365.8 951.34 366.55 938.83 374.06"/><polygon class="cls-6" points="871.28 635.53 850.01 621.77 850.01 522.93 882.53 522.93 871.28 635.53"/><polygon class="cls-7" points="921.32 526.69 882.53 522.93 871.28 635.53 921.32 648.04 921.32 526.69"/><polygon class="cls-8" points="981.37 531.69 981.37 654.29 921.32 648.04 921.32 526.69 981.37 531.69"/><rect class="cls-9" x="981.37" y="531.69" width="53.8" height="122.61"/><polygon class="cls-10" points="1085.21 639.28 1035.17 654.29 1035.17 531.69 1088.96 531.69 1085.21 639.28"/><polygon class="cls-11" points="1116.49 516.68 1088.96 531.69 1085.21 639.28 1116.49 621.77 1116.49 516.68"/><polygon class="cls-12" points="1015 366.71 1055.18 374.58 1021.14 496.66 957.6 408.71 986.3 363.32 1015 366.71"/><polygon class="cls-13" points="981.37 366.55 1024.78 435.26 1028.91 369.43 981.37 366.55"/><polygon class="cls-14" points="1028.91 331.52 1102.72 331.52 1099.1 411.16 1093.72 529.09 1012.65 529.19 1018.9 405.33 1028.91 331.52"/><polygon class="cls-12" points="906.31 391.57 946.34 406.58 941.34 466.63 899.34 496.26 888.79 484.15 906.31 391.57"/><polygon class="cls-15" points="1121.49 461.63 1098.97 411.59 1093.97 529.19 1116.49 516.68 1121.49 461.63"/><polygon class="cls-16" points="1025 360.38 938.83 360.29 938.83 374.06 981.37 366.55 1023.62 370.55 1025 360.38"/><rect class="cls-17" x="938.83" y="349.03" width="86.32" height="11.26"/><polygon class="cls-18" points="891.29 490.4 1015.15 490.4 1012.65 529.19 888.79 522.93 891.29 490.4"/><polygon class="cls-19" points="968.86 480.4 998.88 455.38 972.61 421.6 956.35 446.62 921.32 437.86 932.58 481.65 968.86 480.4"/><polygon class="cls-20" points="968.86 480.4 998.88 455.38 988.88 441.61 963.86 470.39 928.83 466.63 932.58 481.65 968.86 480.4"/><polygon class="cls-21" points="978.87 426.6 988.88 420.35 1016.33 456.27 1007.64 476.64 990.13 476.64 971.36 490.4 910.06 490.4 897.55 467.89 917.57 452.87 935.08 479.14 966.36 480.4 995.13 455.38 978.87 426.6"/><polygon class="cls-22" points="889.88 516.68 1013.24 522.93 1093.97 529.19 1088.96 531.69 981.37 531.69 921.32 526.69 888.79 522.93 889.88 516.68"/><polygon class="cls-23" points="816.23 522.93 888.79 522.93 901.3 376.56 921.32 341.53 938.83 349.03 926.32 331.52 857.51 331.52 827.49 392.82 816.23 522.93"/><polygon class="cls-24" points="981.37 490.4 1015.15 490.4 1015.15 479.65 991.38 479.14 981.37 490.4"/><polygon class="cls-25" points="816.23 522.93 888.79 522.93 888.79 484.15 820.02 479.14 816.23 522.93"/><polygon class="cls-26" points="826.55 403.7 897.55 403.7 888.79 484.15 819.98 479.14 826.55 403.7"/><polygon class="cls-27" points="1012.65 522.93 1093.97 529.19 1095.22 484.15 1015.15 484.15 1012.65 522.93"/><polygon class="cls-28" points="1018.59 411.59 1098.97 411.59 1095.22 484.15 1015.15 484.15 1018.59 411.59"/><polygon class="cls-29" points="935.27 411.62 917.57 429.33 926.42 449.99 957.41 449.99 975.12 430.8 970.69 411.62 957.41 405.72 935.27 411.62"/><polygon class="cls-30" points="936.55 413.49 920.89 429.16 928.72 447.43 956.13 447.43 971.79 430.46 967.88 413.49 956.13 408.27 936.55 413.49"/><polygon class="cls-31" points="942.64 422.42 936.71 428.35 939.67 435.26 950.04 435.26 955.97 428.84 954.49 422.42 950.04 420.44 947.45 421.14 942.64 422.42"/><polygon class="cls-31" points="940.81 430.4 946.34 445.25 943.02 427.08 940.81 430.4"/><polygon class="cls-31" points="951.87 428.19 967.37 429.3 947.45 424.32 951.87 428.19"/><polygon class="cls-31" points="943.02 427.08 954.09 410.48 947.45 423.76 943.02 427.08"/><polygon class="cls-31" points="945.83 427.64 925.31 427.08 940.81 430.4 945.83 427.64"/><polygon class="cls-30" points="945.49 426.6 944.13 427.96 944.81 429.55 947.19 429.55 948.55 428.08 948.21 426.6 947.19 426.15 946.6 426.31 945.49 426.6"/><polygon class="cls-30" points="941.9 424.09 940.92 425.08 941.41 426.23 943.14 426.23 944.13 425.16 943.88 424.09 943.14 423.76 942.71 423.88 941.9 424.09"/><polygon class="cls-30" points="949.65 422.99 948.66 423.98 949.16 425.13 950.89 425.13 951.87 424.06 951.63 422.99 950.89 422.66 950.45 422.77 949.65 422.99"/><polygon class="cls-30" points="949.65 430.73 948.66 431.72 949.16 432.87 950.89 432.87 951.87 431.8 951.63 430.73 950.89 430.4 950.45 430.52 949.65 430.73"/><polygon class="cls-30" points="940.8 430.73 939.81 431.72 940.3 432.87 942.03 432.87 943.02 431.8 942.77 430.73 942.03 430.4 941.6 430.52 940.8 430.73"/><polygon class="cls-12" points="968.86 490.4 981.37 490.4 991.38 479.14 1015.15 479.65 1013.9 470.39 992.63 470.39 968.86 490.4"/><path class="cls-32" d="M938.83,374.06V349l-17.51-7.5-18.4,29.89a13,13,0,0,0-1.88,5.72L888.79,522.93l25-148.87,12.51-7.51Z"/><polygon class="cls-33" points="174.23 237.13 145.33 368.11 211.89 381.48 174.23 237.13"/><polygon class="cls-34" points="300.29 317.5 174.23 237.13 211.89 381.48 300.29 317.5"/><polygon class="cls-35" points="283.92 408.73 275.01 335.8 211.89 381.48 283.92 408.73"/><polygon class="cls-36" points="153.71 330.15 86.01 450.06 129.95 449.68 153.71 330.15"/><polygon class="cls-37" points="295.1 464.36 283.92 408.73 129.95 449.68 295.1 464.36"/><polygon class="cls-38" points="145.33 368.11 211.89 381.48 129.95 449.68 145.33 368.11"/><polygon class="cls-39" points="283.92 408.73 211.89 381.48 129.95 449.68 283.92 408.73"/><polygon class="cls-40" points="86.01 450.06 62.16 544.56 127.53 544.01 86.01 450.06"/><polygon class="cls-41" points="167.01 452.98 127.53 544.01 86.01 450.06 129.95 449.68 167.01 452.98"/><polygon class="cls-42" points="295.1 464.36 290.41 542.63 219.68 543.23 295.1 464.36"/><polygon class="cls-43" points="212.53 457.02 295.1 464.36 219.68 543.23 212.53 457.02"/><polygon class="cls-39" points="167.48 452.58 219.68 543.23 212.52 456.49 167.48 452.58"/><polygon class="cls-44" points="127.53 544.01 219.68 543.23 167.48 452.58 127.53 544.01"/><polygon class="cls-45" points="174.23 237.13 144.01 211.66 73.72 9.72 174.23 237.13"/><polygon class="cls-46" points="300.29 317.5 321.85 332.32 489.04 334.13 300.29 317.5"/><polygon class="cls-47" points="73.72 9.72 149.15 58.37 174.23 237.13 73.72 9.72"/><polygon class="cls-48" points="489.04 334.13 394.04 251.34 300.29 317.5 489.04 334.13"/><polygon class="cls-49" points="174.23 237.13 149.15 58.37 225.72 115.6 174.23 237.13"/><polygon class="cls-50" points="394.04 251.34 319.57 189.82 300.29 317.5 394.04 251.34"/><polygon class="cls-51" points="225.72 115.6 233.02 274.61 174.23 237.13 225.72 115.6"/><polygon class="cls-52" points="319.57 189.82 232.42 275.21 300.29 317.5 319.57 189.82"/><polygon class="cls-53" points="225.72 115.6 319.57 189.82 232.42 275.21 225.72 115.6"/><polygon class="cls-54" points="82.21 0 73.72 9.72 149.15 58.37 154.37 42.26 82.21 0"/><polygon class="cls-55" points="225.54 95.24 225.72 115.6 149.15 58.37 154.37 42.26 225.54 95.24"/><polygon class="cls-56" points="333.42 180.06 319.57 189.82 225.72 115.6 225.54 95.24 333.42 180.06"/><polygon class="cls-57" points="489.04 334.13 496.46 324.42 438.12 268.12 418.4 272.57 489.04 334.13"/><polygon class="cls-58" points="372.28 212.95 357.12 220.84 415.65 272.59 438.12 268.12 372.28 212.95"/><polygon class="cls-59" points="333.42 180.06 372.28 212.95 357.34 220.57 319.57 189.82 333.42 180.06"/><polygon class="cls-60" points="176.82 543.59 179.7 503.92 219.35 503.58 219.68 543.23 176.82 543.59"/><polygon class="cls-61" points="252.51 116.44 363.51 62.99 395.78 76.65 272.47 132.13 252.51 116.44"/><polygon class="cls-62" points="386.36 224.75 417.38 96.83 395.78 76.65 367.05 208.52 386.36 224.75"/><polygon class="cls-63" points="352.5 96.12 355.33 109.14 309.61 161.33 314.48 165.16 360.73 114.45 324.79 173.27 321.39 170.59 333.42 180.06 371.5 120.79 386.53 123.88 395.78 76.65 352.5 96.12"/><polygon class="cls-29" points="341.28 95.29 351.82 125.13 393.02 131.33 367.54 104.42 341.28 95.29"/><polygon class="cls-64" points="418 546.36 488 488.36 496 557.36 418 546.36"/><polygon class="cls-65" points="555 554.36 584 506.36 488 488.36 496 557.36 555 554.36"/><polygon class="cls-66" points="584 557.36 584 506.36 555 554.36 584 557.36"/><polygon class="cls-65" points="636.25 527.48 654.64 438.36 696.86 397.04 700.6 458.05 636.25 527.48"/><polygon class="cls-66" points="718.68 548.57 700.6 458.05 636.25 527.48 648.89 545.4 718.68 548.57"/><polygon class="cls-66" points="1142 557.36 1188 509.36 1260 578.36 1142 557.36"/><polygon class="cls-65" points="1234.66 531.86 1278 490.36 1305.34 506.36 1305 546.36 1234.66 531.86"/></g></g></svg>