<svg xmlns="http://www.w3.org/2000/svg" xmlns:xlink="http://www.w3.org/1999/xlink" viewBox="0 0 699.74 636.91"><defs><style>.cls-1{isolation:isolate;}.cls-2,.cls-3{fill:none;stroke:#fff;stroke-miterlimit:10;stroke-width:3px;}.cls-2{stroke-dasharray:12 12;}.cls-3{stroke-dasharray:12 12;}.cls-4{fill:#55737b;}.cls-5{fill:#9fbbc0;}.cls-6{fill:#2c4754;}.cls-7{fill:#0b1e2e;}.cls-8{fill:#435c69;}.cls-9{fill:#000207;}.cls-10{fill:#040e20;}.cls-11{fill:#091e31;}.cls-12{fill:#304b58;}.cls-13{fill:#01091a;}.cls-14{fill:#152233;}.cls-15{fill:#02102a;}.cls-16{fill:#000611;}.cls-17{fill:#00030b;}.cls-18{fill:#081427;}.cls-19{fill:#01071a;}.cls-20{fill:#010d21;}.cls-21{fill:#284552;}.cls-22{fill:#648388;}.cls-23{fill:#97b4b9;}.cls-24{fill:#56747c;}.cls-25{fill:#a7c6ca;}.cls-26{fill:#6a898c;}.cls-27{fill:#829fa4;}.cls-28{fill:#acc043;}.cls-29{fill:#8ba132;}.cls-30{fill:#9caf3b;}.cls-31{fill:#445813;}.cls-32{fill:#80952e;}.cls-33{fill:#516715;}.cls-34{fill:#798d2e;}.cls-35{fill:#87829b;}.cls-36{fill:#306e83;}.cls-37{fill:#235868;}.cls-38{fill:#c5c3c4;}.cls-39{fill:#42909b;}.cls-40{fill:#777b89;}.cls-41{fill:#92959c;}.cls-42{fill:#c9c0c0;}.cls-43{fill:#4592a4;}.cls-44{fill:#599ba9;}.cls-45{fill:#c4d16f;}.cls-46{fill:#a3c03b;}.cls-47{fill:#adc040;}.cls-48{fill:#899d2e;}.cls-49{fill:#adbf45;}.cls-50{fill:#95aa35;}.cls-51{fill:#afc148;}.cls-52{fill:#347585;}.cls-53{fill:#3c8395;}.cls-54{fill:#3a7d90;}.cls-55{fill:#889b30;}.cls-56{fill:#a9bb4d;}.cls-57{fill:#a3b643;}.cls-58{fill:#b1c252;}.cls-59{fill:#ccd77b;}.cls-60{fill:#5f9aaa;}.cls-61{fill:#4991a0;}.cls-62{fill:#bcca68;}.cls-63{fill:#689dab;}.cls-64{fill:#337488;}.cls-65{fill:#397c8f;}.cls-66{fill:#859a31;}.cls-67{fill:#47889a;}.cls-68{fill:#83aeb7;}.cls-69{fill:#73a1ad;}.cls-70{fill:#508fa0;}.cls-71{fill:#35788b;}.cls-72{fill:#5f6478;}.cls-73{fill:url(#linear-gradient);}.cls-74{fill:url(#linear-gradient-2);}.cls-75{fill:url(#linear-gradient-3);}.cls-76{fill:url(#linear-gradient-4);}.cls-77{fill:url(#linear-gradient-5);}.cls-78{fill:url(#linear-gradient-6);}.cls-79{fill:url(#linear-gradient-7);}.cls-80{fill:url(#linear-gradient-8);}.cls-81{fill:url(#linear-gradient-9);}.cls-82{fill:url(#linear-gradient-10);}.cls-83{fill:url(#linear-gradient-11);}.cls-84{fill:url(#linear-gradient-12);}.cls-85{fill:url(#linear-gradient-13);}.cls-86{fill:url(#linear-gradient-14);}.cls-87{fill:url(#linear-gradient-15);}.cls-88{fill:url(#linear-gradient-16);}.cls-89{fill:url(#linear-gradient-17);}.cls-90{fill:url(#linear-gradient-18);}.cls-91{fill:url(#linear-gradient-19);}.cls-92{fill:url(#linear-gradient-20);}.cls-93{mask:url(#mask);}.cls-94{opacity:0.41;fill:url(#radial-gradient);}.cls-104,.cls-94{mix-blend-mode:overlay;}.cls-95{fill:#c3c1b5;}.cls-96{fill:#b2b2b4;}.cls-97{fill:#aaa;}.cls-98{fill:#aaa9a5;}.cls-99{fill:#9b9b9e;}.cls-100{fill:#c3c0b7;}.cls-101{fill:#a3a3a2;}.cls-102{fill:#a09f9c;}.cls-103{mask:url(#mask-2);}.cls-104{opacity:0.81;fill:url(#radial-gradient-2);}.cls-105{filter:url(#luminosity-noclip-2);}.cls-106{filter:url(#luminosity-noclip);}</style><linearGradient id="linear-gradient" x1="-1069.87" y1="671.22" x2="-1089.61" y2="637.03" gradientTransform="translate(-744.49 1015.32) rotate(180)" gradientUnits="userSpaceOnUse"><stop offset="0.15" stop-color="#e2dc69"/><stop offset="0.24" stop-color="#e6dd56"/><stop offset="0.4" stop-color="#f1df25"/><stop offset="0.52" stop-color="#f9e100"/></linearGradient><linearGradient id="linear-gradient-2" x1="-1079.47" y1="667.6" x2="-1061.06" y2="635.71" xlink:href="#linear-gradient"/><linearGradient id="linear-gradient-3" x1="-1071.54" y1="658.77" x2="-1043.55" y2="658.77" xlink:href="#linear-gradient"/><linearGradient id="linear-gradient-4" x1="-1071.54" y1="682.68" x2="-1035.39" y2="682.68" xlink:href="#linear-gradient"/><linearGradient id="linear-gradient-5" x1="-1077.37" y1="678.02" x2="-1050.55" y2="704.84" xlink:href="#linear-gradient"/><linearGradient id="linear-gradient-6" x1="-1075.62" y1="672.18" x2="-1075.62" y2="710.67" xlink:href="#linear-gradient"/><linearGradient id="linear-gradient-7" x1="-1077.83" y1="668.56" x2="-1096.44" y2="700.8" xlink:href="#linear-gradient"/><linearGradient id="linear-gradient-8" x1="-1071.54" y1="676.27" x2="-1110.03" y2="676.27" xlink:href="#linear-gradient"/><linearGradient id="linear-gradient-9" x1="-1071.96" y1="672.92" x2="-1105.41" y2="653.6" xlink:href="#linear-gradient"/><linearGradient id="linear-gradient-10" x1="-1071.54" y1="668.1" x2="-1031.89" y2="668.1" xlink:href="#linear-gradient"/><linearGradient id="linear-gradient-11" x1="-3198.04" y1="-387.16" x2="-3217.78" y2="-421.35" gradientTransform="matrix(-0.94, -0.33, 0.33, -0.94, -2565.86, -1077.43)" xlink:href="#linear-gradient"/><linearGradient id="linear-gradient-12" x1="-3207.64" y1="-390.78" x2="-3189.23" y2="-422.67" gradientTransform="matrix(-0.94, -0.33, 0.33, -0.94, -2565.86, -1077.43)" xlink:href="#linear-gradient"/><linearGradient id="linear-gradient-13" x1="-3199.71" y1="-399.61" x2="-3171.72" y2="-399.61" gradientTransform="matrix(-0.94, -0.33, 0.33, -0.94, -2565.86, -1077.43)" xlink:href="#linear-gradient"/><linearGradient id="linear-gradient-14" x1="-3199.71" y1="-375.7" x2="-3163.55" y2="-375.7" gradientTransform="matrix(-0.94, -0.33, 0.33, -0.94, -2565.86, -1077.43)" xlink:href="#linear-gradient"/><linearGradient id="linear-gradient-15" x1="-3205.54" y1="-380.36" x2="-3178.72" y2="-353.54" gradientTransform="matrix(-0.94, -0.33, 0.33, -0.94, -2565.86, -1077.43)" xlink:href="#linear-gradient"/><linearGradient id="linear-gradient-16" x1="-3203.79" y1="-386.2" x2="-3203.79" y2="-347.71" gradientTransform="matrix(-0.94, -0.33, 0.33, -0.94, -2565.86, -1077.43)" xlink:href="#linear-gradient"/><linearGradient id="linear-gradient-17" x1="-3206" y1="-389.82" x2="-3224.61" y2="-357.58" gradientTransform="matrix(-0.94, -0.33, 0.33, -0.94, -2565.86, -1077.43)" xlink:href="#linear-gradient"/><linearGradient id="linear-gradient-18" x1="-3199.71" y1="-382.11" x2="-3238.2" y2="-382.11" gradientTransform="matrix(-0.94, -0.33, 0.33, -0.94, -2565.86, -1077.43)" xlink:href="#linear-gradient"/><linearGradient id="linear-gradient-19" x1="-3200.13" y1="-385.47" x2="-3233.58" y2="-404.78" gradientTransform="matrix(-0.94, -0.33, 0.33, -0.94, -2565.86, -1077.43)" xlink:href="#linear-gradient"/><linearGradient id="linear-gradient-20" x1="-3199.71" y1="-390.28" x2="-3160.06" y2="-390.28" gradientTransform="matrix(-0.94, -0.33, 0.33, -0.94, -2565.86, -1077.43)" xlink:href="#linear-gradient"/><filter id="luminosity-noclip" x="0" y="-14528.5" width="49" height="32766" filterUnits="userSpaceOnUse" color-interpolation-filters="sRGB"><feFlood flood-color="#fff" result="bg"/><feBlend in="SourceGraphic" in2="bg"/></filter><mask id="mask" x="0" y="-14528.5" width="49" height="32766" maskUnits="userSpaceOnUse"><g class="cls-106"/></mask><radialGradient id="radial-gradient" cx="24.5" cy="222" r="24.5" gradientUnits="userSpaceOnUse"><stop offset="0.01" stop-color="#fff"/><stop offset="0.14" stop-color="#fff" stop-opacity="0.99"/><stop offset="0.24" stop-color="#fff" stop-opacity="0.95"/><stop offset="0.32" stop-color="#fff" stop-opacity="0.89"/><stop offset="0.4" stop-color="#fff" stop-opacity="0.8"/><stop offset="0.48" stop-color="#fff" stop-opacity="0.68"/><stop offset="0.55" stop-color="#fff" stop-opacity="0.54"/><stop offset="0.62" stop-color="#fff" stop-opacity="0.37"/><stop offset="0.68" stop-color="#fff" stop-opacity="0.18"/><stop offset="0.74" stop-color="#fff" stop-opacity="0"/></radialGradient><filter id="luminosity-noclip-2" x="136" y="-14528.5" width="375" height="32766" filterUnits="userSpaceOnUse" color-interpolation-filters="sRGB"><feFlood flood-color="#fff" result="bg"/><feBlend in="SourceGraphic" in2="bg"/></filter><mask id="mask-2" x="136" y="-14528.5" width="375" height="32766" maskUnits="userSpaceOnUse"><g class="cls-105"/></mask><radialGradient id="radial-gradient-2" cx="323.5" cy="343" r="187.5" gradientUnits="userSpaceOnUse"><stop offset="0.01" stop-color="#ffff50"/><stop offset="0.14" stop-color="#ffff52" stop-opacity="0.99"/><stop offset="0.24" stop-color="#ffff59" stop-opacity="0.95"/><stop offset="0.32" stop-color="#ffff64" stop-opacity="0.89"/><stop offset="0.4" stop-color="#ffff73" stop-opacity="0.8"/><stop offset="0.48" stop-color="#ff8" stop-opacity="0.68"/><stop offset="0.55" stop-color="#ffffa0" stop-opacity="0.54"/><stop offset="0.62" stop-color="#ffffbe" stop-opacity="0.37"/><stop offset="0.68" stop-color="#ffffdf" stop-opacity="0.18"/><stop offset="0.74" stop-color="#fff" stop-opacity="0"/></radialGradient></defs><title>orbitalPath</title><g class="cls-1"><g id="Layer_2" data-name="Layer 2"><g id="Layer_1-2" data-name="Layer 1"><circle class="cls-2" cx="381.28" cy="318.45" r="316.95"/><circle class="cls-3" cx="327.09" cy="336.55" r="286.36"/><polygon class="cls-4" points="496.18 30.58 489.5 27.74 497.02 22.36 496.18 30.58"/><polygon class="cls-5" points="498.1 13.39 497.02 22.36 491.82 16.34 498.1 13.39"/><polygon class="cls-6" points="505.62 25.14 496.18 30.58 497.02 22.36 505.62 25.14"/><polygon class="cls-7" points="494.7 38.46 486.92 36.98 489.5 27.74 494.7 38.46"/><polygon class="cls-8" points="496.18 30.58 494.7 38.46 489.5 27.74 496.18 30.58"/><polygon class="cls-9" points="491.82 42.35 486.92 36.98 494.7 38.46 491.82 42.35"/><polygon class="cls-9" points="499.21 46.38 491.82 42.35 499.29 43.28 499.21 46.38"/><polygon class="cls-10" points="494.7 38.46 499.29 43.28 491.82 42.35 494.7 38.46"/><polygon class="cls-11" points="504.58 36.99 496.18 30.58 494.7 38.46 504.58 36.99"/><polygon class="cls-12" points="506.12 30.82 505.62 25.14 496.18 30.58 506.12 30.82"/><polygon class="cls-13" points="504.58 36.99 496.18 30.58 506.12 30.82 504.58 36.99"/><polygon class="cls-14" points="499.29 43.28 494.7 38.46 504.58 36.99 499.29 43.28"/><polygon class="cls-15" points="506.41 45.17 499.21 46.38 499.29 43.28 506.41 45.17"/><polygon class="cls-16" points="504.58 36.99 506.41 45.17 499.29 43.28 504.58 36.99"/><polygon class="cls-17" points="512.66 39.33 504.58 36.99 506.41 45.17 512.66 39.33"/><polygon class="cls-18" points="506.12 30.82 512.66 39.33 504.58 36.99 506.12 30.82"/><polygon class="cls-9" points="514.97 32.43 506.12 30.82 512.66 39.33 514.97 32.43"/><polygon class="cls-19" points="514.13 23.1 506.12 30.82 514.97 32.43 514.13 23.1"/><polygon class="cls-20" points="505.62 25.14 514.13 23.1 506.12 30.82 505.62 25.14"/><polygon class="cls-21" points="505.66 14.76 505.62 25.14 514.13 23.1 511.68 18.23 505.66 14.76"/><polygon class="cls-22" points="497.02 22.36 505.66 14.76 505.62 25.14 497.02 22.36"/><polygon class="cls-23" points="498.1 13.39 505.66 14.76 497.02 22.36 498.1 13.39"/><polygon class="cls-24" points="489.5 27.74 486.61 23.6 485.31 28.49 486.92 36.98 489.5 27.74"/><polygon class="cls-25" points="489.22 21.74 491.82 16.34 497.02 22.36 489.22 21.74"/><polygon class="cls-26" points="486.61 23.6 489.22 21.74 489.5 27.74 486.61 23.6"/><polygon class="cls-27" points="489.5 27.74 489.22 21.74 497.02 22.36 489.5 27.74"/><polygon class="cls-28" points="34.8 289.31 42.95 293.03 42.6 285.24 32.77 281.33 34.8 289.31"/><polyline class="cls-29" points="65.13 291.21 42.96 292.94 42.6 285.14 65.13 291.21"/><polyline class="cls-30" points="65.13 291.21 47.96 286.59 68.75 285.37"/><polygon class="cls-31" points="74.36 257.55 76.39 269.06 73.59 277.21 74.36 257.55"/><polyline class="cls-32" points="68.75 285.37 73.59 277.21 63.57 277.76 68.75 285.37"/><polygon class="cls-33" points="74.36 257.55 68.15 269.18 63.57 277.76 73.59 277.21 74.36 257.55"/><polygon class="cls-34" points="63.96 263.84 68.13 269.14 74.36 257.55 63.96 263.84"/><polygon class="cls-35" points="62.42 243.71 74.36 257.55 55.18 243.33 62.42 243.71"/><polygon class="cls-36" points="63.96 263.84 62.18 248.52 74.36 257.55 63.96 263.84"/><polygon class="cls-37" points="55.18 243.33 46.65 241.83 52.68 240.82 55.18 243.33"/><polygon class="cls-38" points="35.26 289.68 24.24 277.32 31.19 282.81 35.26 289.68"/><polygon class="cls-39" points="32.77 281.23 31.19 282.81 34.8 289.31 32.77 281.23"/><polygon class="cls-40" points="24.33 277.23 32.77 281.23 31.19 282.81 24.33 277.23"/><polygon class="cls-41" points="26.01 274.45 24.33 277.23 32.77 281.23 26.01 274.45"/><polygon class="cls-42" points="22.22 264.89 24.33 277.23 26.01 274.45 22.22 264.89"/><polygon class="cls-43" points="32.77 281.23 22.22 264.89 26.01 274.45 32.77 281.23"/><polygon class="cls-44" points="38.53 275.68 32.77 281.23 21.76 264.43 38.53 275.68"/><polygon class="cls-45" points="37.61 267.88 38.53 275.68 21.76 264.43 37.61 267.88"/><polygon class="cls-46" points="23.63 256.08 21.76 264.43 37.61 267.88 23.63 256.08"/><polygon class="cls-47" points="35.8 243.95 28.89 260.52 23.63 256.08 35.8 243.95"/><polygon class="cls-48" points="46.65 241.83 35.8 243.95 31.18 255.03 46.65 241.83"/><polygon class="cls-49" points="37.61 267.88 31.14 255.07 28.81 260.63 37.61 267.88"/><polygon class="cls-50" points="39.68 253.79 31.14 255.07 37.61 267.88 39.68 253.79"/><polygon class="cls-51" points="38.64 248.66 39.68 253.79 31.14 255.07 38.64 248.66"/><polygon class="cls-52" points="55.18 243.33 38.57 248.59 46.65 241.83 55.18 243.33"/><polygon class="cls-53" points="39.68 253.79 38.57 248.59 55.18 243.33 39.68 253.79"/><polygon class="cls-54" points="62.23 248.53 54.89 255.85 55.18 243.33 62.23 248.53"/><polygon class="cls-55" points="39.68 253.79 54.89 255.85 55.18 243.33 39.68 253.79"/><polygon class="cls-56" points="37.61 267.88 48.56 265.67 39.68 253.79 37.61 267.88"/><polygon class="cls-57" points="44.38 274.67 37.61 267.88 48.56 265.67 44.38 274.67"/><polygon class="cls-58" points="54.89 255.85 39.68 253.79 48.56 265.67 54.89 255.85"/><polygon class="cls-54" points="63.96 263.84 54.89 255.85 62.23 248.53 63.96 263.84"/><polyline class="cls-59" points="68.75 285.37 47.97 286.64 63.57 277.76 68.75 285.37"/><polygon class="cls-60" points="42.5 285.24 38.53 275.68 32.77 281.23 42.5 285.24"/><polygon class="cls-61" points="47.97 286.64 38.53 275.68 42.5 285.24 47.97 286.64"/><polygon class="cls-62" points="37.61 267.88 38.53 275.68 44.38 274.67 37.61 267.88"/><polygon class="cls-63" points="41.62 279.26 38.53 275.68 44.38 274.67 41.62 279.26"/><polygon class="cls-64" points="63.96 263.84 58.02 266.25 52.74 259.18 54.89 255.85 63.96 263.84"/><polygon class="cls-65" points="58.43 280.68 58.02 266.25 63.96 263.84 58.43 280.68"/><polygon class="cls-66" points="68.13 269.14 63.31 278.02 58.37 280.72 63.96 263.84 68.13 269.14"/><polygon class="cls-67" points="44.38 274.67 51.33 273.65 48.56 265.67 44.38 274.67"/><polygon class="cls-68" points="58.02 266.25 52.93 258.82 48.56 265.67 58.02 266.25"/><polygon class="cls-69" points="51.33 273.65 58.02 266.25 48.56 265.67 51.33 273.65"/><polygon class="cls-70" points="58.37 280.72 51.33 273.65 58.02 266.25 58.37 280.72"/><polygon class="cls-67" points="47.97 286.64 51.33 273.65 58.37 280.72 47.97 286.64"/><polygon class="cls-71" points="41.59 279.3 47.97 286.64 51.33 273.65 44.38 274.67 41.59 279.3"/><polygon class="cls-72" points="62.42 243.8 55.18 243.42 52.68 240.91 62.42 243.8"/><polygon class="cls-73" points="327.06 343.13 346.88 364.13 343.38 379.29 331.72 372.29 327.06 343.13"/><polygon class="cls-74" points="320.06 381.62 331.72 372.29 327.06 343.13 311.89 368.79 320.06 381.62"/><polygon class="cls-75" points="299.06 369.96 299.06 355.96 327.06 343.13 311.89 368.79 299.06 369.96"/><polygon class="cls-76" points="307.23 322.14 290.9 324.47 299.06 338.47 327.06 343.13 307.23 322.14"/><polygon class="cls-77" points="321.22 313.97 308.39 308.14 307.23 322.14 327.06 343.13 321.22 313.97"/><polygon class="cls-78" points="335.22 304.64 341.05 316.31 327.06 343.13 321.22 313.97 335.22 304.64"/><polygon class="cls-79" points="355.05 316.31 352.72 330.3 327.06 343.13 341.05 316.31 355.05 316.31"/><polygon class="cls-80" points="365.55 338.47 355.05 347.8 327.06 343.13 352.72 330.3 365.55 338.47"/><polygon class="cls-81" points="355.05 347.8 327.06 343.13 346.88 364.13 360.88 361.79 355.05 347.8"/><polygon class="cls-82" points="299.06 355.96 287.4 347.8 299.06 338.47 327.06 343.13 299.06 355.96"/><polygon class="cls-83" points="327.02 343.32 338.81 369.69 330.5 382.85 321.8 372.39 327.02 343.32"/><polygon class="cls-84" points="307.71 377.35 321.8 372.39 327.02 343.32 304.24 362.54 307.71 377.35"/><polygon class="cls-85" points="291.75 359.41 296.37 346.19 327.02 343.32 304.24 362.54 291.75 359.41"/><polygon class="cls-86" points="315.24 316.96 299.05 313.77 302.14 329.68 327.02 343.32 315.24 316.96"/><polygon class="cls-87" points="331.14 313.88 320.96 304.13 315.24 316.96 327.02 343.32 331.14 313.88"/><polygon class="cls-88" points="347.44 309.69 349.09 322.62 327.02 343.32 331.14 313.88 347.44 309.69"/><polygon class="cls-89" points="362.3 327.24 355.48 339.68 327.02 343.32 349.09 322.62 362.3 327.24"/><polygon class="cls-90" points="364.89 351.63 351.91 356.97 327.02 343.32 355.48 339.68 364.89 351.63"/><polygon class="cls-91" points="351.91 356.97 327.02 343.32 338.81 369.69 352.79 372.11 351.91 356.97"/><polygon class="cls-92" points="296.37 346.19 288.05 334.64 302.14 329.68 327.02 343.32 296.37 346.19"/><g class="cls-93"><circle class="cls-94" cx="24.5" cy="222" r="24.5"/></g><polygon class="cls-95" points="25.57 226.42 22.64 226.27 23.62 225.45 25.57 226.42"/><polygon class="cls-96" points="25.42 224.22 25.57 226.42 23.62 225.45 25.42 224.22"/><polygon class="cls-96" points="28.68 221.87 25.42 224.22 25.17 222.74 28.68 221.87"/><polygon class="cls-97" points="27.99 224.69 25.57 226.42 25.42 224.22 28.68 221.87 27.99 224.69"/><polygon class="cls-98" points="20.5 224.15 23.62 225.45 22.64 226.27 20.5 224.15"/><polygon class="cls-99" points="21.79 218.76 20.19 221.14 20.5 224.15 21.79 218.76"/><polygon class="cls-100" points="22.98 225.19 23.27 223.3 21.79 218.76 20.5 224.15 22.98 225.19"/><polygon class="cls-101" points="24.56 217.91 21.79 218.76 23.27 223.3 24.56 217.91"/><polygon class="cls-96" points="25.17 222.74 23.27 223.3 24.56 217.91 25.17 222.74"/><polygon class="cls-100" points="28.68 221.87 24.56 217.91 25.17 222.74 28.68 221.87"/><polygon class="cls-96" points="27.3 219.06 24.56 217.91 28.68 221.87 27.3 219.06"/><polygon class="cls-100" points="25.17 222.74 22.97 225.22 23.62 225.45 25.42 224.22 25.17 222.74"/><polygon class="cls-102" points="23.27 223.3 25.17 222.74 22.97 225.22 23.27 223.3"/><g class="cls-103"><circle class="cls-104" cx="323.5" cy="343" r="187.5"/></g></g></g></g></svg>