<svg xmlns="http://www.w3.org/2000/svg" viewBox="0 0 1671 1680"><defs><style>.cls-1{fill:#777578;}.cls-2{fill:#9896a1;}.cls-3{fill:#bcbabb;}.cls-4{fill:#787a89;}.cls-5{fill:#706e71;}.cls-6{fill:#a9a8a6;}.cls-7{fill:#959394;}.cls-8{fill:#c2bebd;}.cls-9{fill:#131313;}.cls-10{fill:#252330;}.cls-11{fill:#212123;}.cls-12{fill:#181818;}.cls-13{fill:#1c1b23;}.cls-14{fill:#161618;}.cls-15{fill:#25242c;}.cls-16{fill:#1e1e20;}.cls-17{fill:#141414;}.cls-18{fill:#2d2c31;}.cls-19{fill:#23232b;}.cls-20{fill:#1b1a1f;}.cls-21{fill:#1a1a1c;}.cls-22{fill:#7876a6;}.cls-23{fill:#3a3166;}.cls-24{fill:#574e9b;}.cls-25{fill:#483c7c;}.cls-26{fill:#3b366b;}.cls-27{fill:#5f5c86;}.cls-28{fill:#2c2a5b;}.cls-29{fill:#2a2656;}.cls-30{fill:#23203f;}.cls-31{fill:#110e17;}.cls-32{fill:#121026;}.cls-33{fill:#120f24;}.cls-34{fill:#0f0e1c;}.cls-35{fill:#141419;}.cls-36{fill:#03080b;}.cls-37{fill:#1b1735;}.cls-38{fill:#302b56;}.cls-39{fill:#161328;}.cls-40{fill:#191335;}.cls-41{fill:#141029;}.cls-42{fill:#13121a;}.cls-43{fill:#1e1d25;}.cls-44{fill:#131123;}.cls-45{fill:#030205;}.cls-46{fill:#868895;}.cls-47{fill:#52525e;}.cls-48{fill:#64646e;}.cls-49{fill:#7b7b87;}.cls-50{fill:#777684;}.cls-51{fill:#c9cadc;}.cls-52{fill:#73708b;}.cls-53{fill:#b8b9cb;}.cls-54{fill:#cbcada;}.cls-55{fill:#a5a7b6;}.cls-56{fill:#dedcf1;}.cls-57{fill:#555462;}.cls-58{fill:#9695a7;}.cls-59{fill:#464854;}.cls-60{fill:#26262e;}.cls-61{fill:#08090b;}.cls-62{fill:#131419;}.cls-63{fill:#313139;}.cls-64{fill:#3d4049;}.cls-65{fill:#06070b;}.cls-66{fill:#bdbed3;}.cls-67{fill:#5e606c;}.cls-68{fill:#494858;}.cls-69{fill:#53535f;}.cls-70{fill:#9fa0b2;}.cls-71{fill:#dddfee;}.cls-72{fill:#9e9fb4;}.cls-73{fill:#2c2c2e;}.cls-74{fill:#333335;}.cls-75{fill:#262628;}.cls-76{fill:#170e2b;}.cls-77{fill:#9e8f6d;}.cls-78{fill:#d2cb9d;}.cls-79{fill:#a2936c;}.cls-80{fill:#e5dbac;}.cls-81{fill:#2f2a24;}.cls-82{fill:#423f38;}.cls-83{fill:#5c513f;}.cls-84{fill:#493f2a;}.cls-85{fill:#0e0d16;opacity:0.71;}.cls-86{fill:#8b8593;}.cls-87{fill:#736d7b;}.cls-88{fill:#92795a;}.cls-89{fill:#a48c70;}.cls-90{fill:#070c10;}.cls-91{fill:#98825b;}.cls-92{fill:#7b6647;}.cls-93{fill:#a4895c;}.cls-94{fill:#ab9c73;}.cls-95{fill:#6e6f71;}.cls-96{fill:#4c4b50;}.cls-97{fill:#4c4d4f;}</style></defs><title>Osirus REx Poly</title><g id="Layer_2" data-name="Layer 2"><g id="Layer_1-2" data-name="Layer 1"><polygon class="cls-1" points="896 871 621 835 803 1146 896 871"/><polygon class="cls-2" points="621 835 896 871 1006 515 621 835"/><polygon class="cls-3" points="896 871 1222.24 899.18 1219 862 1136 716 1066 588 1006 515 896 871"/><polygon class="cls-4" points="1222 899 803 1146 896 871 1222 899"/><polygon class="cls-5" points="961 484 1087 434 1133.2 472.6 961 484"/><polygon class="cls-6" points="961 484 1006 515 1133 473 961 484"/><polygon class="cls-7" points="969.39 545.42 911.66 512.57 824 582 969.39 545.42"/><polygon class="cls-8" points="824 582 848.43 645.97 969 545 824 582"/><polygon class="cls-9" points="1006 515 1150 467 1087 650 1006 515"/><polygon class="cls-10" points="1087 650 1150 467 1231.1 532.56 1087 650"/><polygon class="cls-11" points="1150 467 1287 423 1231 533 1150 467"/><polygon class="cls-12" points="1287 423 1396 389 1445 458 1287 423"/><polygon class="cls-9" points="1231 533 1287 423 1378.92 443.36 1231 533"/><polygon class="cls-13" points="1311.23 484.38 1445 458 1379 443 1311.23 484.38"/><polygon class="cls-14" points="1445 458 1486 526 1327 481.27 1445 458"/><polygon class="cls-15" points="1087 650 1227 689 1185.5 569.73 1087 650"/><polygon class="cls-16" points="1227 689 1183 824 1087 650 1227 689"/><polygon class="cls-17" points="1183 824 1222.24 899.18 1323 839 1183 824"/><polygon class="cls-18" points="1183 824 1236.76 829.76 1200.26 771.05 1183 824"/><polygon class="cls-19" points="1414 506 1486 526 1484.21 569.04 1414 506"/><polygon class="cls-20" points="1484 569 1550 629 1486 526 1484 569"/><polygon class="cls-21" points="1512 594 1550 629 1542.77 672.01 1512 594"/><polygon class="cls-17" points="1550 629 1584 685 1553.68 709.7 1543 672 1550 629"/><polygon class="cls-22" points="291 195 117 407 493 301 291 195"/><polygon class="cls-23" points="493 301 179 513 117 407 493 301"/><polygon class="cls-24" points="179 513 0 550 117 407 179 513"/><polygon class="cls-25" points="0 550 179 634 179 513 0 550"/><polygon class="cls-26" points="179 513 366 634 179 634 179 513"/><polygon class="cls-27" points="366 633 366 385.75 179 512 366 633"/><polygon class="cls-28" points="366 387 645 385 493 301 366 387"/><polygon class="cls-24" points="366 634 412 743 179 634 366 634"/><polygon class="cls-29" points="366 634 645 385 366 387 366 634"/><polygon class="cls-30" points="412 743 448.03 560.79 366 634 412 743"/><polygon class="cls-31" points="412 743 691 732 585 824 412 743"/><polygon class="cls-32" points="448 561 692 732 412 743 448 561"/><polygon class="cls-33" points="763 452 836 462 666.9 534.89 763 452"/><polygon class="cls-34" points="667 535 881 540 784.39 484.25 667 535"/><polygon class="cls-35" points="881 540 808 634 667 535 881 540"/><polygon class="cls-36" points="808 634 867 581 869.95 554.23 808 634"/><polygon class="cls-37" points="835 462 918 506 783.96 484 835 462"/><polygon class="cls-38" points="881 540 919 506 785 484 881 540"/><polygon class="cls-39" points="645 385 667 535 763 452 645 385"/><polygon class="cls-40" points="667 535 528.78 488.72 645 385 667 535"/><polygon class="cls-41" points="601.14 513.05 601.3 513 529 489 448 561 667 535 601.14 513.05"/><polygon class="cls-42" points="575.23 650.17 587.43 544.45 448 561 575.23 650.17"/><polygon class="cls-43" points="587 544 667 535 575 650 587 544"/><polygon class="cls-44" points="575 650 808 634 667 535 575 650"/><polygon class="cls-45" points="692 732 808 634 575 650 692 732"/><polygon class="cls-46" points="1208 458 1155 515 1350 560 1208 458"/><polygon class="cls-47" points="1208 458 1327 458 1302.08 525.58 1208 458"/><polygon class="cls-48" points="1327 458 1414 506 1350 560 1327 458"/><polygon class="cls-49" points="1327 458 1302 526 1350 560 1327 458"/><polygon class="cls-50" points="1414 506 1512 594 1350 560 1414 506"/><polygon class="cls-51" points="1155 515 1144 594 1252.5 537.5 1155 515"/><polygon class="cls-52" points="1452.12 581.43 1452 617 1512 594 1452.12 581.43"/><polygon class="cls-53" points="1144 594 1267 659 1253 537 1144 594"/><polygon class="cls-54" points="1267 659 1452 617 1350 560 1267 659"/><polygon class="cls-55" points="1267 659 1252 537 1350 560 1267 659"/><polygon class="cls-56" points="1350 560 1452 581 1452 617 1350 560"/><polygon class="cls-57" points="1512 594 1513.66 598 1539 659 1452 617 1512 594"/><polygon class="cls-58" points="1267 659 1452 667 1452 617 1267 659"/><polygon class="cls-59" points="1452 667 1539 659 1452 617 1452 667"/><polygon class="cls-60" points="1452 667 1572 773 1539 659 1452 667"/><polygon class="cls-61" points="1572 773 1572 856 1452 890 1572 773"/><polygon class="cls-19" points="1452 667 1370 811 1572 773 1452 667"/><polygon class="cls-62" points="1572 856 1527 932 1452 890 1572 856"/><polygon class="cls-63" points="1370 811 1452 890 1572 773 1370 811"/><polygon class="cls-64" points="1452 890 1350 932 1439 959 1452 890"/><polygon class="cls-65" points="1527 932 1439 959 1452 890 1527 932"/><polygon class="cls-66" points="1267 659 1414.99 732 1452 667 1267 659"/><polygon class="cls-4" points="1327 688.6 1370 811 1414 732 1327 688.6"/><polygon class="cls-67" points="1370 811 1350 932 1452 890 1370 811"/><polygon class="cls-68" points="1370 811 1205 781 1276 890 1370 811"/><polygon class="cls-69" points="1350 932 1276 890 1370 811 1350 932"/><polygon class="cls-70" points="1205 781 1327 689 1370 811 1205 781"/><polygon class="cls-71" points="1205 781 1327 689 1267 659 1205 781"/><polygon class="cls-72" points="1144 594 1164 695 1267 659 1144 594"/><polygon class="cls-46" points="1164 695 1267 659 1205 781 1164 695"/><polygon class="cls-73" points="1006 515 961 484 969 545 1006 515"/><polygon class="cls-74" points="961 484 939 475 969 545 961 484"/><polygon class="cls-75" points="969 545 878 494 939 475 969 545"/><polygon class="cls-40" points="1092 265 1188 185 1087 434 1076.21 438.28 1092 265"/><polyline class="cls-32" points="1134.36 317.24 1252 434.24 1133 473 1087 434"/><polygon class="cls-30" points="1133.2 320.1 1252 434 1188 185 1133.2 320.1"/><polygon class="cls-76" points="1252 434 1217.82 301 1385.75 392.2 1252 434"/><polygon class="cls-29" points="1188 185 1386 392 1218 301 1188 185"/><polygon class="cls-24" points="1188 185 1318 68 1277.45 278.51 1188 185"/><polygon class="cls-25" points="1386 392 1301.78 152.19 1277 279 1386 392"/><polygon class="cls-22" points="1302 152 1395 0 1318 68 1302 152"/><polygon class="cls-27" points="1302 152 1386 201 1395 0 1302 152"/><polygon class="cls-24" points="1302 152 1386 201 1386 392 1302 152"/><path class="cls-77" d="M1126.11,954.84l112-65.71-2.22,86-109.72-19.7A.3.3,0,0,1,1126.11,954.84Z"/><polygon class="cls-78" points="1238.15 889.13 1339.72 945.76 1235.16 1005.09 1238.15 889.13"/><polygon class="cls-79" points="1126 955 1149.9 1052.91 1235.93 975.1 1126 955"/><polygon class="cls-80" points="1149.9 1052.91 1235.16 1005.09 1235.93 975.1 1149.9 1052.91"/><polygon class="cls-81" points="1235.16 1005.09 1296.7 1023.68 1339.72 945.76 1235.16 1005.09"/><polygon class="cls-82" points="1235.16 1005.09 1274.07 1048.11 1296.7 1023.68 1235.16 1005.09"/><polygon class="cls-83" points="1235.16 1005.09 1233.85 1056.08 1274.07 1048.11 1235.16 1005.09"/><polygon class="cls-84" points="1149.9 1052.91 1233.85 1056.08 1235.16 1005.09 1149.9 1052.91"/><polygon class="cls-85" points="1126 955 1267.04 905.24 1238 889 1126 955"/><polygon class="cls-86" points="1594 1658 1657 1620 1639 1665 1594 1658"/><polygon class="cls-87" points="1657 1620 1671 1642 1639 1665 1657 1620"/><polygon class="cls-4" points="1594 1658 1601 1680 1639 1665 1594 1658"/><polygon class="cls-88" points="1607.66 1649.76 1594 1604 1627.26 1637.94 1607.66 1649.76"/><polygon class="cls-89" points="1627 1638 1643.68 1628.03 1611 1594 1627 1638"/><polygon class="cls-79" points="1594 1604 1611 1594 1627 1638 1594 1604"/><polyline class="cls-90" points="1392 1262 1594 1604 1611 1594 1406 1254 1392 1262"/><polygon class="cls-91" points="1406 1254 1396 1235 1381 1245 1392 1262 1406 1254"/><polygon class="cls-92" points="1381 1245 1368 1217 1397 1188 1413 1212 1395.62 1235.26 1381 1245"/><polygon class="cls-93" points="1378.19 1206.81 1362 1197 1391.38 1193.63 1378.19 1206.81"/><polygon class="cls-94" points="1362 1197 1371 1182 1391 1194 1362 1197"/><polygon class="cls-90" points="1370.31 1183.15 1126 1035 1117 1048 1362.68 1195.86 1370.31 1183.15"/><polygon class="cls-93" points="1117 1048 1099.29 1038.81 1117 1028.13 1126 1035 1117 1048"/><polygon class="cls-85" points="1099 1038 1126 1035 1117 1028 1099 1038"/><polygon class="cls-79" points="1078 1013 1056 1028 1053 1021 1073.33 1005.09 1078 1013"/><polygon class="cls-90" points="1053 1021 1042 1028 1030.71 1011.76 1066 991 1073.57 1005.51 1053 1021"/><polygon class="cls-95" points="1140.41 1014.01 1094 1042 1126 955 1140.41 1014.01"/><polygon class="cls-96" points="1094 1042 1065.56 991.22 1126 955 1094 1042"/><polygon class="cls-97" points="1042 1028 1062 1062 1027 1085 1030 1010 1042 1028"/><polygon class="cls-95" points="1027 1085 993.29 1033.82 1030.71 1011.76 1027 1085"/><polygon class="cls-77" points="957.82 1100.18 989 1151.72 926.65 1145.36 894.55 1092.28 936.19 1067.1 957.82 1100.18"/><polygon class="cls-93" points="926.65 1145.36 936.19 1067.1 989 1151.72 926.65 1145.36"/><polygon class="cls-94" points="926.65 1145.36 966.73 1161.9 989 1151.72 926.65 1145.36"/><polygon class="cls-77" points="1027 1085 1076 1166 978 1156 927.55 1072.58 993 1033 1027 1085"/><polygon class="cls-93" points="978 1156 993 1033 1076 1166 978 1156"/><polygon class="cls-94" points="978 1156 1041 1182 1076 1166 978 1156"/><polygon class="cls-85" points="967 1162 928 1073 978.86 1156.36 967 1162"/></g></g></svg>