<svg xmlns="http://www.w3.org/2000/svg" viewBox="0 0 600 1031"><defs><style>.cls-1{fill:#c9cbbd;}.cls-2{fill:#070708;}.cls-3{fill:#0c0a0b;}.cls-4{fill:#100f13;}.cls-5{fill:#08080a;}.cls-6{fill:#050507;}.cls-7,.cls-8{fill:#242421;}.cls-7{opacity:0.56;}.cls-9{fill:#191917;}.cls-10{fill:#111110;}.cls-11{fill:#141413;}.cls-12{fill:#0c0c0b;}.cls-13{fill:#3f3f3d;}.cls-14{fill:#353534;}.cls-15{fill:#666665;}.cls-16{fill:#7c7c7b;}.cls-17{fill:#686867;}.cls-18{fill:#3d3d3a;}.cls-19{fill:#2d2d2b;}.cls-20{fill:#0c0c0c;}.cls-21{fill:#b7b7b3;}.cls-22{fill:#a0a09f;}</style></defs><title>Otes</title><g id="Layer_2" data-name="Layer 2"><g id="Layer_1-2" data-name="Layer 1"><polygon class="cls-1" points="22 724 22 854 44.95 804.21 22 724"/><polygon class="cls-1" points="377 1007 431 865 484 973 377 1007"/><polygon class="cls-2" points="22 674 431 818 431 976 22 674"/><polygon class="cls-3" points="22 674 22 794 431 976 22 674"/><polygon class="cls-4" points="22 674 210 558 566 648 22 674"/><polygon class="cls-5" points="22 674 431 818 566 648 22 674"/><polygon class="cls-6" points="566 648 566 757 431 976 566 648"/><polygon points="431 976 431 818 566 648 431 976"/><polygon class="cls-7" points="160 712 284 724 377 695 408.49 659.39 416 626 416 100 402 40 374 11 338 0 288 8 232 43 180 95 138 156 107 220 86 283 77 333 77 380 104.5 654.5 122.5 686.5 160 712"/><polygon class="cls-8" points="160 712 194 474 155 480 160 712"/><polygon class="cls-9" points="155 480 122 686 160 712 155 480"/><polygon class="cls-10" points="155 480 120 469 104.08 650.26 155 480"/><polygon class="cls-11" points="155 480 104 650 122 686 155 480"/><polygon class="cls-12" points="120 469 81.42 424.17 104.08 650.26 120 469"/><polygon class="cls-13" points="194 474 284 724 160 712 194 474"/><polygon class="cls-14" points="194 474 246 453 284 724 194 474"/><polygon class="cls-15" points="246 453 325 374 284 724 246 453"/><polygon class="cls-16" points="325 374 377 695 284 724 325 374"/><polygon class="cls-17" points="325 374 384 266 377 695 325 374"/><polygon class="cls-8" points="384 266 416 152.67 416 626 384 266"/><polygon class="cls-18" points="384 266 377 695 408 659 384 266"/><polygon class="cls-19" points="408 659 416 626 384 266 408 659"/><polygon class="cls-20" points="155 480 194 474 246 453 325 374 384 266 416 153 416 100 402 40 374 11 338 0 288 8 230.5 44.5 180 95 138 156 106.69 220.94 85.92 283.45 77 333 77 380 81.5 424.89 120 469 155 480"/><polygon class="cls-21" points="377 1007 495 997 484 973 377 1007"/><polygon class="cls-22" points="377 1007 392 1031 495 997 377 1007"/><polygon class="cls-1" points="566 695 584 717 566 757 566 695"/><polygon class="cls-21" points="581 724 581 825 554.6 775.5 581 724"/><polygon class="cls-22" points="581 825 600 818 581 774 581 825"/><polygon class="cls-22" points="22 854 0 854 22 757 22 854"/></g></g></svg>