<svg xmlns="http://www.w3.org/2000/svg" viewBox="0 0 314 719"><defs><style>.cls-1{fill:#e8b118;}.cls-2{fill:#fac50f;}.cls-3{fill:#f0c016;}.cls-4{fill:#e0b017;}.cls-5{fill:#fcce07;}.cls-6{fill:#fed168;}.cls-7{fill:#fdd354;}.cls-8{fill:#fcc93a;}.cls-9{fill:#fed764;}.cls-10{fill:#fdd453;}.cls-11{fill:#feca3d;}.cls-12{fill:#fddb7a;}.cls-13{fill:#050504;}.cls-14{fill:#fec438;}.cls-15{fill:#fbbe2e;}.cls-16{fill:#fecd4c;}.cls-17{fill:#fdc73e;}.cls-18{fill:#eeb553;}.cls-19{fill:#f0b723;}.cls-20{fill:#d19c29;}.cls-21{fill:#f8f9f8;}.cls-22{fill:#e3e5e3;}</style></defs><title>Polycam_1</title><g id="Layer_2" data-name="Layer 2"><g id="Layer_1-2" data-name="Layer 1"><polygon class="cls-1" points="52 589 166 719 52 701.33 52 589"/><polygon class="cls-2" points="52 589 280 582.49 166 719 52 589"/><polygon class="cls-3" points="166 719 280 699 280 582 166 719"/><polygon class="cls-4" points="280 582 290 577 308 586 280 582"/><polygon class="cls-5" points="308 586 280 699 280 582 308 586"/><polygon class="cls-2" points="308 586 314 673 280 699 308 586"/><polygon class="cls-6" points="56 110 47 162 44 224 60 153 56 110"/><polygon class="cls-7" points="60 154.67 123 212 44 224 60 154.67"/><polygon class="cls-8" points="123 212 44 259 44 224 123 212"/><polygon class="cls-9" points="44 259 158 241 123 212 44 259"/><polygon class="cls-10" points="123 212 202 208 158 241 123 212"/><polygon class="cls-11" points="158 241 259 251 202 208 158 241"/><polygon class="cls-12" points="202 208 259 110 266 151 202 208"/><polygon class="cls-7" points="266 151 259 251 202 208 266 151"/><polygon class="cls-8" points="266 151 275 257 259 251 266 151"/><polygon class="cls-13" points="155 220 202 208 242 167 259 123 259 82 241 41 211 15 165 0 120 8 83 37 61 71 56 110 60 153 83 187 116 214 155 220"/><polygon class="cls-14" points="44 259 29 577 158 241 44 259"/><polygon class="cls-15" points="29 577 84 605 83.5 435.05 29 577"/><polygon class="cls-16" points="84 605 160 610 158 241 84 605"/><polygon class="cls-17" points="158 241 83 435 84 605 158 241"/><polygon class="cls-17" points="158 241 259 251 160 610 158 241"/><polygon class="cls-18" points="259 251 275 257 280 397 259 251"/><polygon class="cls-19" points="280 397 259 251 160 610 280 397"/><polygon class="cls-20" points="280 397 290 577 239 605 280 397"/><polygon class="cls-17" points="239 605 160 610 280 397 239 605"/><polygon class="cls-21" points="52 588.71 0 561 0 669 52 709 52 588.71"/><polygon class="cls-22" points="52 589 0 669 52 709 52 589"/></g></g></svg>