<svg xmlns="http://www.w3.org/2000/svg" viewBox="0 0 635 686"><defs><style>.cls-1{fill:#f3c981;}.cls-2{fill:#fecc68;}.cls-3{fill:#ead2b3;}.cls-4{fill:#e4deb4;}.cls-5{fill:#d4b85c;}.cls-6{fill:#fae067;}.cls-7{fill:#e7d141;}.cls-8{fill:#fed7a6;}.cls-9{fill:#fdf4a6;}.cls-10{fill:#edf2ca;}.cls-11{fill:#fbee8d;}.cls-12{fill:#ffe3a6;}.cls-13{fill:#fcd09a;}.cls-14{fill:#faee8a;}.cls-15{fill:#fad2c0;}.cls-16{fill:#ddbe6c;}.cls-17{fill:#a88e35;}.cls-18{fill:#aa8f46;}.cls-19{fill:#dcb967;}.cls-20{fill:#d9b890;}.cls-21{fill:#cbb279;}.cls-22{fill:#d4ab4c;}.cls-23{fill:#dac8a6;}.cls-24{fill:#ae9331;}.cls-25{fill:#af9049;}.cls-26{fill:#9b7e30;}.cls-27{fill:#a08730;}.cls-28{fill:#9b8631;}.cls-29{fill:#7a6b2a;}.cls-30{fill:#aa913f;}.cls-31{fill:#867535;}.cls-32{fill:#b28f2f;}.cls-33{fill:#8e722b;}.cls-34{fill:#e7d995;}.cls-35{fill:#efefb8;}.cls-36{fill:#e3c35b;}.cls-37{fill:#dedd8f;}.cls-38{fill:#e2c741;}.cls-39{fill:#bb9c30;}.cls-40{fill:#d5a942;}.cls-41{fill:#b6922f;}.cls-42{fill:#c8a42d;}.cls-43{fill:#b5922f;}.cls-44{fill:#cdab2e;}.cls-45{fill:#dbba60;}.cls-46{fill:#edd486;}.cls-47{fill:#fde69b;}.cls-48{fill:#eacc65;}.cls-49{fill:#c89f45;}.cls-50{fill:#d5ae34;}.cls-51{fill:#cdac65;}.cls-52{fill:#bc9e65;}.cls-53{fill:#bb923b;}.cls-54{fill:#cfa143;}.cls-55{fill:#8a6b2c;}.cls-56{fill:#7d6025;}.cls-57{fill:#876d2b;}.cls-58{fill:#aa8b2f;}.cls-59{fill:#ac9431;}.cls-60{fill:#caad2d;}.cls-61{fill:#a99131;}.cls-62{fill:#936e2a;}.cls-63{fill:#b0882d;}.cls-64{fill:#a28447;}.cls-65{fill:#e9ca5d;}.cls-66{fill:#ccbe71;}.cls-67{fill:#eeedb3;}.cls-68{fill:#e3e9d0;}.cls-69{fill:#cbd17a;}.cls-70{fill:#ffdfb5;}.cls-71{fill:#aa9b44;}.cls-72{fill:#c1ba44;}.cls-73{fill:#bcbe6d;}.cls-74{fill:#a28730;}.cls-75{fill:#8e6d2a;}.cls-76{fill:#b68a2d;}.cls-77{fill:#ae995b;}.cls-78{fill:#dfc7a2;}.cls-79{fill:#f0d0b1;}.cls-80{fill:#f0d2c9;}.cls-81{fill:#cea32b;}.cls-82{fill:#050707;}.cls-83{fill:#050708;}.cls-84{fill:#d0ad2b;}.cls-85{fill:#7c651d;}.cls-86{fill:#f4e0a2;}.cls-87{fill:#fcf0be;}.cls-88{fill:#ffe292;}.cls-89{fill:#f2dd83;}.cls-90{fill:#fce160;}.cls-91{fill:#e5d58f;}.cls-92{fill:#e5ce6c;}</style></defs><title>Samcam_1</title><g id="Layer_2" data-name="Layer 2"><g id="Layer_1-2" data-name="Layer 1"><polygon class="cls-1" points="562 171 555 91 587 124 562 171"/><polygon class="cls-2" points="347 312 294 152 404 193 347 312"/><polygon class="cls-3" points="600 179.5 587 124 562 171 600 179.5"/><polygon class="cls-4" points="562 171 547 233 600 179 562 171"/><polygon class="cls-5" points="484 260 562 171 547 233 484 260"/><polygon class="cls-1" points="555 91 484 28 484 260 562 171 587 124 555 91"/><polygon class="cls-6" points="484 28 347 312 484 260 484 28"/><polygon class="cls-7" points="484 28 380 0 404.51 192.78 484 28"/><polygon class="cls-8" points="294 152 380 0 405 193 294 152"/><polygon class="cls-9" points="380 0 207 18 294 152 380 0"/><polygon class="cls-10" points="207 18 105 67 294 152 207 18"/><polygon class="cls-11" points="105 67 25 184 199.5 109.5 105 67"/><polygon class="cls-4" points="53 209 48.99 173.76 25 184 53 209"/><polygon class="cls-12" points="53 209 107.72 148.68 49 174 53 209"/><polygon class="cls-12" points="87 258 108 149 53 209 87 258"/><polygon class="cls-13" points="108 149 347 312 294 152 108 149"/><polygon class="cls-14" points="108 149 294 152 201 110.17 199.66 109.57 108 149"/><polygon class="cls-15" points="108 149 199.5 211.4 87 258 108 149"/><polygon class="cls-16" points="219 314 199 211 347 312 219 314"/><polygon class="cls-6" points="87 258 143 306 219 314 199 211 87 258"/><polygon class="cls-17" points="62 501 268 553 71 626 62 501"/><polygon class="cls-18" points="71 626 281 686 268 553 71 626"/><polygon class="cls-19" points="62 501 57 434 120 473 62 501"/><polygon class="cls-20" points="62 501 160.76 525.93 120 473 62 501"/><polygon class="cls-21" points="120 473 257 504 159 526 120 473"/><polygon class="cls-22" points="159 526 268 553 257 504 159 526"/><polygon class="cls-23" points="268 553 353 501 257 504 268 553"/><polygon class="cls-24" points="353 501 411 579 268 553 353 501"/><polygon class="cls-25" points="281 686 347 650 268 553 281 686"/><polygon class="cls-26" points="268 553 411 579 347 650 268 553"/><polygon class="cls-27" points="347 650 500 609 411 579 347 650"/><polygon class="cls-28" points="411 579 462 473 353 501 411 579"/><polygon class="cls-29" points="462 473 500 609 411 579 462 473"/><polygon class="cls-30" points="462 473 558 420 500 609 462 473"/><polygon class="cls-31" points="500 609 625 499 558 420 500 609"/><polygon class="cls-32" points="558 420 631 322 625 499 558 420"/><polygon class="cls-32" points="67.05 571.07 34 501 57 434 67.05 571.07"/><polygon class="cls-33" points="34 501 12 366 57 434 34 501"/><polygon class="cls-34" points="19 253 0 301 38 341 19 253"/><polygon class="cls-35" points="38 341 57 434 12 366 38 341"/><polygon class="cls-36" points="0 301 12 366 38 341 0 301"/><polygon class="cls-37" points="38 341 67 392 57 434 38 341"/><polygon class="cls-38" points="57 434 67 392 117 429 57 434"/><polygon class="cls-39" points="57 434 117 429 120 473 57 434"/><polygon class="cls-40" points="117 429 223 462 120 473 117 429"/><polygon class="cls-41" points="120 473 257 504 223 462 120 473"/><polygon class="cls-42" points="223 462 323 467 257 504 223 462"/><polygon class="cls-43" points="257 504 323 467 353 501 257 504"/><polygon class="cls-44" points="323 467 466 431 353 501 323 467"/><polygon class="cls-45" points="466 431 462 473 353 501 466 431"/><polygon class="cls-46" points="466 431 558 420 462 473 466 431"/><polygon class="cls-47" points="466 431 564 365 558 420 466 431"/><polygon class="cls-48" points="564 365 605 290 631 322 564 365"/><polygon class="cls-49" points="564 365 558 420 631 322 564 365"/><polygon class="cls-50" points="631 322 635 245 605 290 631 322"/><polygon class="cls-51" points="605 290 600 177 635 245 605 290"/><polygon class="cls-52" points="600 179 589 251 605 290 600 179"/><polygon class="cls-53" points="589 251 544 305 605 290 589 251"/><polygon class="cls-54" points="544 305 564 365 605 290 544 305"/><polygon class="cls-55" points="544 305 466 431 564 365 544 305"/><polygon class="cls-56" points="466 431 462 353 544 305 466 431"/><polygon class="cls-57" points="462 353 323 388 466 431 462 353"/><polygon class="cls-58" points="323 388 323 467 466 431 323 388"/><polygon class="cls-59" points="323 388 223 462 323 467 323 388"/><polygon class="cls-60" points="323 388 201 382 223 462 323 388"/><polygon class="cls-61" points="201 382 117 429 223 462 201 382"/><polygon class="cls-62" points="201 382 92 341 117 429 201 382"/><polygon class="cls-63" points="67 392 92 341 117 429 67 392"/><polygon class="cls-64" points="92 341 38 341 67 392 92 341"/><polygon class="cls-65" points="92 341 53 312 38 341 92 341"/><polygon class="cls-66" points="53 312 19 253 38 341 53 312"/><polygon class="cls-67" points="19 253 25 184 53 209 19 253"/><polygon class="cls-68" points="19 253 53 312 53 209 19 253"/><polygon class="cls-69" points="53 312 131 287 87 258 53 312"/><polygon class="cls-70" points="53 209 87 258 53 312 53 209"/><polygon class="cls-71" points="92 341 131 287 53 312 92 341"/><polygon class="cls-16" points="131 287 201 382 92 341 131 287"/><polyline class="cls-72" points="133.21 290 201 382 219 314 131 287"/><polygon class="cls-73" points="219 314 347 312 323 388 219 314"/><polygon class="cls-74" points="201 382 323 388 219 314 201 382"/><polygon class="cls-75" points="347 312 462 353 323 388 347 312"/><polygon class="cls-76" points="347 312 484 260 462 353 347 312"/><polygon class="cls-77" points="484 260 544 305 462 353 484 260"/><polygon class="cls-78" points="589 251 484 260 544 305 589 251"/><polygon class="cls-79" points="547 233 589 251 600 179 547 233"/><polygon class="cls-80" points="547 233 484 260 589 251 547 233"/><polygon class="cls-81" points="306 299 123 256 216 110 306 299"/><polygon class="cls-82" points="177 227 209 266 269 240 177 227"/><polygon class="cls-83" points="177 227 181 171 269 240 177 227"/><polygon class="cls-84" points="216 110 294 125 306 299 216 110"/><polygon class="cls-84" points="216 110 294 125 306 299 216 110"/><polygon class="cls-84" points="216 110 294 125 306 299 216 110"/><polygon class="cls-84" points="216 110 294 125 306 299 216 110"/><polygon class="cls-84" points="216 110 294 125 306 299 216 110"/><polygon class="cls-84" points="216 110 294 125 306 299 216 110"/><polygon class="cls-84" points="216 110 294 125 306 299 216 110"/><polygon class="cls-84" points="216 110 294 125 306 299 216 110"/><polygon class="cls-84" points="216 110 294 125 306 299 216 110"/><polygon class="cls-84" points="216 110 294 125 306 299 216 110"/><polygon class="cls-84" points="216 110 294 125 306 299 216 110"/><polygon class="cls-84" points="216 110 294 125 306 299 216 110"/><polygon class="cls-84" points="216 110 294 125 306 299 216 110"/><polygon class="cls-84" points="216 110 294 125 306 299 216 110"/><polygon class="cls-84" points="216 110 294 125 306 299 216 110"/><polygon class="cls-84" points="216 110 294 125 306 299 216 110"/><polygon class="cls-84" points="216 110 294 125 306 299 216 110"/><polygon class="cls-83" points="181 171 291 184 269 240 181 171"/><polygon class="cls-83" points="181 171 228 131 291 184 181 171"/><polygon class="cls-83" points="228 131 260 131 291 184 228 131"/><polygon class="cls-85" points="306 299 330.6 262.5 294 125 306 299"/><polygon class="cls-38" points="318.89 218.5 366.43 184 366 91 318.89 218.5"/><polygon class="cls-7" points="366 91 283 110 319 218 366 91"/><polygon class="cls-38" points="283 110 244 91 227.5 112.21 283 110"/><polygon class="cls-38" points="227 112 287.59 123.77 283 110 227 112"/><polyline class="cls-86" points="323 67 283 110 286 69 324.5 67"/><polygon class="cls-87" points="244 91 288 53 283 110 244 91"/><polygon class="cls-88" points="288 53 323 67 343 53 288 53"/><polygon class="cls-89" points="323 67 286.55 69.59 288 53 323 67"/><polygon class="cls-90" points="323 67 354 63 343 53 323 67"/><polygon class="cls-91" points="323 67 366 91 283 110 323 67"/><polygon class="cls-92" points="354 63 366 91 323 67 354 63"/><polygon class="cls-83" points="260 131 291 154 291 184 260 131"/></g></g></svg>