<svg xmlns="http://www.w3.org/2000/svg" viewBox="0 0 853.81 701.58"><defs><style>.cls-1{fill:#535f65;}.cls-2{fill:#415457;}.cls-3{fill:#a1a7a7;}.cls-4{fill:#405156;}.cls-5{fill:#374e51;}.cls-6{fill:#485859;}.cls-7{fill:#81898a;}.cls-8{fill:#0a242c;}.cls-9{fill:#072227;}.cls-10{fill:#183138;}.cls-11{fill:#162f34;}.cls-12{fill:#122c31;}.cls-13{fill:#08262a;}.cls-14{fill:#132f33;}.cls-15{fill:#193338;}.cls-16{fill:#062227;}.cls-17{fill:#868e8f;}.cls-18{fill:#273d40;}.cls-19{fill:#415359;}.cls-20{fill:#2f4448;}.cls-21{fill:#3f5056;}.cls-22{fill:#152e33;}.cls-23{fill:#2e454a;}.cls-24{fill:#1d3538;}.cls-25{fill:#2b3f42;}.cls-26{fill:#182d31;}.cls-27{fill:#99a0a2;}</style></defs><title>Asset 4SmallAsteroidField</title><g id="Layer_2" data-name="Layer 2"><g id="Layer_1-2" data-name="Layer 1"><path class="cls-1" d="M641,395.8c7,2.07,12.76,1.57,20.87,3.21-1.11,8.41-2.16,16.44-3.22,24.47.15,2.87-1.75,4.29-6.42.79C639,414.43,625.11,404.88,615,393.56c0-.67.55-1,1.52-.95A200,200,0,0,0,641,395.8Z"/><path class="cls-2" d="M705.62,212.45l-29.24,52.77c-7.4-19.72-14-37.42-21.12-56.24Z"/><path class="cls-3" d="M486.59,426.83c-.78,2.92-2.8,6.65-5.24,3.55-6.5-8.28-15,9.67-19.62-2-1.25-3.16.89-10,7.55-8.07C475.16,421.94,483.43,417.5,486.59,426.83Z"/><path class="cls-3" d="M432.71,430.39c-6.32-.11-11.13-3-14.7-8.25C432.75,406.58,428.68,426,432.71,430.39Z"/><path class="cls-3" d="M459.44,447c-3-.88-6.61-.94-7.47-5.12,2.37-1.24,4.51-4.16,7.51-1.31C461.68,442.69,459.94,444.89,459.44,447Z"/><path class="cls-4" d="M608.91,405.21c.76-4.88,1.63-9.7,6.81-12.08C627,403.55,640.05,413,652.29,423c5,4,4.72,1.15,6.31.53,1.6,3.9-1.18,4.75-5,5.31-18.81,2.79-37.39,5.83-56,8.78-2-.23-4.31-.24-3.24-2.46,3.21-6.63,6.39-13.27,9.59-19.91,3.29-2.38,3.7-6.48,6.27-9.29.06-.06-.3-.49-.54-.63A2.11,2.11,0,0,0,608.91,405.21Z"/><path class="cls-5" d="M717.49,512.68l-20.2,26.09-8.67-25.53-2.15-8.58c2.75-.77,4.14,1.62,6.57.44.66.37,1.33.73,2,1.08.81.69,1.44,1.79,2.88.83,5.92-.08,11,2.32,16.57,3.21C715.1,511.73,717.06,510.83,717.49,512.68Z"/><path class="cls-6" d="M777.63,310.38c-1.14,4.06-2.2,8.14-3.44,12.17-.82,2.67-1.48,6.39-4.55,6.48-2.2.07-3.23-3.44-4.29-5.7-4.15-8.76-2-13.32,7.16-15.82C775.43,306.72,776.78,307.88,777.63,310.38Z"/><path class="cls-7" d="M500.32,374.84c1-1,1.56-2.34,3.05-2.7,1.37,4.9,2.63,9.83,4.16,14.68.72,2.32-.19,2.64-2.14,2.6-4.59-.1-9.19-.11-14.22-.16l5.06-8.51a2.19,2.19,0,0,0,1.25-1.81C497.58,377,498.34,375.49,500.32,374.84Z"/><path class="cls-7" d="M743.19,258.35l-29.79,1.47c2.94-10.28,11.33-16.94,17-25.4,1.45-2.15,2.91-.27,3.82,1.24,1.48,2.46,2.9,5,4.35,7.43.65,3,3.27,5.28,2.86,8.6C740.3,254.36,744,255.78,743.19,258.35Z"/><path class="cls-8" d="M250.4,149.25,248,151.13a3.58,3.58,0,0,1-2.16-1.37,123.69,123.69,0,0,1-4.65-25c-.21-3.11-.62-6.31,2.12-8.73,6.18.81,12.35,1.84,18.56,2.37,6.91.6,6.32,3.37,3.13,8C259.94,133.86,255.26,141.61,250.4,149.25Z"/><path class="cls-9" d="M246.92,149.4l1.12,1.72c-1.22,4.31-2.95.68-4.48.3l-32.49-19c5.8-5.52,13.3-8.33,20-12.46,5.43.9,6.79,5.58,8.56,9.63C242.43,136,244.62,142.72,246.92,149.4Z"/><path class="cls-10" d="M246.92,149.4c-7.22-8.59-8.61-20.16-15-29.17a2.79,2.79,0,0,1,.62-2.08c3.33-2.07,7-2.29,10.79-2.15C241.89,127.42,246.43,138.19,246.92,149.4Z"/><path class="cls-11" d="M415.08,125.86c-1.84,0-3.23,3.42-5.42.71a55.17,55.17,0,0,1-2-20.72c.24-2.81.17-5.71,3.34-7.14,7.13-.69,14.28-3,21.39.14a5.44,5.44,0,0,1,1,2.23c-2.25,8.64-9.77,13-14.12,18.32-2.3,1.09-.25,1.68-.76.65-.08-.15.17-.28.62-.59a5.35,5.35,0,0,1,3.24-.94,1.46,1.46,0,0,1,1.14.91q.26.7.09.81Z"/><path class="cls-12" d="M423.35,119l-8.05,3.65,16.95-21.9c6.69-7,15.45-7,24.15-7.24,1.05,3.33-3.19,3.32-3.62,5.72l-9.59,6.32c-1.92,2.55-5.54,2.92-7.3,5.68l-6.81,4.39C427.58,117.43,426,119.16,423.35,119Z"/><path class="cls-13" d="M387.85,85.6c5.86-7.72,14.22-12.85,20.68-19.95.35-2.11,2.07-2.43,3.73-2.84,3.07-.8,3.92-5.14,7.69-4.85.13.39.26.77.4,1.16a10.21,10.21,0,0,1-.23,4.85c-2.91,8.37-3.39,17.26-5.62,25.77-.85,3.24-1.07,6.8-3.84,9.28C400.05,99.66,393.91,92.68,387.85,85.6Z"/><path class="cls-14" d="M456.4,93.5c-7.5,4.25-16.5,3.48-24.14,7.24l-.19-.42c-3.85-11.06-8.05-22-11.24-33.28-.33-2.63-.75-5.26-.84-7.92A4.51,4.51,0,0,0,420,58,46.28,46.28,0,0,1,432.23,69.6c.93,2.31,1.85,4.63,5,4.34C443.76,80.35,452.34,84.71,456.4,93.5Z"/><path class="cls-15" d="M387.85,85.6c5.62,3.75,11.24,7.52,16.89,11.24,1.81,1.19,3.58,3.12,6,1.06a1.32,1.32,0,0,1,.89.81c.12.38.15.6.06.65-4.34,5.26-1.3,11.36-1.89,17-.35,3.36-.11,6.78-.14,10.17q-4.68-8.17-9.37-16.34c-3-8.78-10.09-15.5-12.45-24.61Z"/><path class="cls-16" d="M411.69,99.36l-.95-1.46q3.87-17.28,7.75-34.54c2.67-1.64,3.39-.13,3.58,2.22,3.59,9.92,7.28,19.82,10.69,29.81.48,1.4-.43,3.27-.69,4.92C425.38,97.8,418.41,101.14,411.69,99.36Z"/><path class="cls-17" d="M671.25,332.5c-6.12-2.36-6.89-7.78-11.35-11.09l-8.31-11.48c6.7.09,12.8,2.93,19.06,3.68,3.64.43,2.21,2.49,2.25,4,.1,3.53-2.13,6.64-.84,10.38C673.31,329.83,672.13,331.13,671.25,332.5Z"/><path class="cls-18" d="M510.05,219.91l4.15,5a9.71,9.71,0,0,1,6.55,6.75q2.82,4.23,5.63,8.46c-.85,3.39-3.75,4.22-6.51,4.83-8.69,1.92-17.13,4.82-25.87,6.54-10.21,2.31-20.25,5.39-30.54,7.39-1.19.23-2.08.8-2.17,2.16-2.77.34-5.5.6-6.19-3.14,5.08-7.28,13.1-10.85,20-15.83,10.31-7.45,20.36-15.31,30-21.32-.87.16-2.47-.58-3.13-2.94C505,217.18,507.44,218.93,510.05,219.91Z"/><path class="cls-19" d="M493.84,249.89c10.5-4.4,22.37-4.23,32.54-9.75,2.39,2.1-.15,3.49-.83,5.05-.44,1-1.51,1.73-2.13,2.68-5.17,7.89-8.9,17.53-15.84,23.27-7.84,6.5-16.44-4.39-25.35-3.49l-7.63-3.15c-1.8-2.16-7.24-2.08-5.34-6.24,1.77-3.88,5.65-2.89,8.72-.67,2.73,2,3.35-.73,4.61-1.94,2.59-2.48,5.63-4.44,9.15-3.14C496.14,254.13,491.61,249.46,493.84,249.89Z"/><path class="cls-20" d="M502,217.83l5.91,3.54-52.8,36.54q12.19-21.57,24.4-43.15c1.43-2.52,3.26-3.65,6.32-2.5C491.15,214.26,496.59,216,502,217.83Z"/><path class="cls-21" d="M493.84,249.89c-1,1.27,3.36,4.57-1,4.08-6.68-.75-9.73,3-11.95,8-3.88-1.11-5.24-7.45-10.88-3.56.75,2.51,4.5,3.12,4.56,6.06-4.82.36-8.87-2.29-13.31-3.44-.78-1.17-4.54-2.43-.06-3.52C472.08,254.91,483,252.43,493.84,249.89Z"/><path class="cls-7" d="M560.47,367.76c1.36.11,2.79-.33,4,.57-2.84,4.22-5.78,8.39-8.48,12.69-1.29,2.06-2.13,1.58-3.36.07-2.9-3.56-5.88-7.06-9.11-10.92l9.76-1.68a2.18,2.18,0,0,0,2.19-.22C557.06,367.08,558.69,366.69,560.47,367.76Z"/><path class="cls-7" d="M595.2,336.71c1.79,0,3.77-1,5.29.39-4.39,7.55-8.89,15-13.11,22.7-2,3.67-3.06,3-4.48.59-3.35-5.61-6.81-11.1-10.55-17.16L585.58,339a2.61,2.61,0,0,0,2.95-.69C590.76,336.05,593,335.15,595.2,336.71Z"/><path class="cls-6" d="M527.61,214.34c-.78,2.77-1.5,5.56-2.35,8.31-.56,1.83-1,4.37-3.1,4.44-1.51,0-2.21-2.35-2.94-3.9-2.84-6-1.37-9.1,4.89-10.81C526.11,211.84,527,212.63,527.61,214.34Z"/><path class="cls-22" d="M256.92,665.39c11.35,5.15,22.22,3.55,33.33,5.29,12.14.73,24.31,1.63,36.4,2.08,3.67.13,9.47,3.35,9.05-4.53-3.27-14.06-8.65-27.2-18.94-38.18-9.63-2-15.5,4-21.83,8.94-8.7,9.83-19.95,15.5-31.95,19.94C260,660,257.53,661.6,256.92,665.39Z"/><path class="cls-23" d="M316.48,630.9c5.31,13,10.47,26,19.22,37.33,3.8-8.2,3.39-18.35,5.08-27.54q1.39-13.14,2.81-26.28c-2.68-5.48-6.43-4.78-10.11-4.6C325.78,614.66,317.43,618.83,316.48,630.9Z"/><path class="cls-24" d="M316.48,630.9l19.8-19.23c5.9-.2,8.1-4.41,8.58-10.46-30.32-6.86-60.42-10.75-90.54-14.71-2.76-.17-2.92,2-2.66,4.45a12,12,0,0,0,3.87,5.44c15.67,12.4,15.42,12.25,9.85,29.8-3.83,12.07-9.95,22.88-10.29,36.93a2,2,0,0,0,1.83,2.27l6.87-3.25a105.89,105.89,0,0,0,32-18.72Z"/><path class="cls-25" d="M259.11,664.18c8.44-15.79,12.66-34.42,19.52-51.26,2.07-5.07,1.55-8.23-4.52-10.78-5.66-2.38-11.17-5.74-16.74-8.67-3.65-5.08-9.06-4.72-13.24-8.13-2.91,1.4-9.33-1.93-6.3,7.07C245.82,616.19,249.33,640.63,259.11,664.18Z"/><path class="cls-26" d="M220.65,693.83c4.18-5.82,8.26-11.73,12.59-17.45,2.87-3.79,6.08-9.36,11-7.72,3.56,1.18,3.16,7.38,3.55,11.62,1.53,16.42-4.55,22.47-20.66,21.11C222,701,220.55,698.31,220.65,693.83Z"/><path class="cls-3" d="M774.41,278.45c1.49-2.62,4.39-5.72,6-2.09,4.2,9.65,17-5.55,18.47,6.94.41,3.37-3.38,9.4-9.35,5.89C784.22,286.09,775.1,288.29,774.41,278.45Z"/><path class="cls-3" d="M827.43,288.69c6.08,1.71,10,5.74,12.12,11.7C821.34,311.71,830.21,293.94,827.43,288.69Z"/><path class="cls-3" d="M805.79,265.81c2.71,1.62,6.16,2.59,5.93,6.85-2.61.59-5.41,2.88-7.6-.65C802.53,269.44,804.77,267.75,805.79,265.81Z"/><path class="cls-27" d="M832.81,260.72l-7-6.37C830.54,253,831.11,255.9,832.81,260.72Z"/><path class="cls-27" d="M850.36,269.36c-1-1.26-.48-2.09.47-2.37a3.17,3.17,0,0,1,2.5.26,1.23,1.23,0,0,1-.53,2.19A7.31,7.31,0,0,1,850.36,269.36Z"/><path class="cls-27" d="M807,200.91l3.45-8.77C813.45,196,810.91,197.6,807,200.91Z"/><path class="cls-27" d="M805.24,220.39c.82-1.37,1.78-1.19,2.38-.4a3.14,3.14,0,0,1,.65,2.42,1.23,1.23,0,0,1-2.23.29A7.07,7.07,0,0,1,805.24,220.39Z"/><path class="cls-27" d="M756.08,256.6l2.73,9C754.07,264.43,755.08,261.61,756.08,256.6Z"/><path class="cls-27" d="M745.4,240.21c.21,1.59-.66,2-1.62,1.79a3.11,3.11,0,0,1-2-1.49,1.23,1.23,0,0,1,1.57-1.61A7.26,7.26,0,0,1,745.4,240.21Z"/><path class="cls-27" d="M755.5,307.82l-7.45,5.78C747.46,308.75,750.46,308.68,755.5,307.82Z"/><path class="cls-27" d="M767,292c-1.4.76-2.13.12-2.24-.87a3.07,3.07,0,0,1,.67-2.41,1.23,1.23,0,0,1,2.07.89A7.07,7.07,0,0,1,767,292Z"/><path class="cls-27" d="M824.53,305.35l-7.6-5.59C821.44,297.87,822.33,300.74,824.53,305.35Z"/><path class="cls-27" d="M842.91,312.05c-1.13-1.14-.7-2,.21-2.4a3.13,3.13,0,0,1,2.51,0,1.23,1.23,0,0,1-.29,2.23A7,7,0,0,1,842.91,312.05Z"/><path class="cls-27" d="M589.06,287.64c1.17,4.47,1.71,6.57,2.38,9.12C586.75,295.39,587.86,292.61,589.06,287.64Z"/><path class="cls-27" d="M579,270.86c.15,1.59-.73,2-1.68,1.72a3.12,3.12,0,0,1-2-1.57,1.23,1.23,0,0,1,1.64-1.54A6.93,6.93,0,0,1,579,270.86Z"/><path class="cls-27" d="M558.58,330.27l-7.66,5.49C550.51,330.89,553.51,330.93,558.58,330.27Z"/><path class="cls-27" d="M570.65,314.87c-1.44.72-2.14,0-2.22-.95a3.13,3.13,0,0,1,.77-2.39,1.23,1.23,0,0,1,2,1A7.05,7.05,0,0,1,570.65,314.87Z"/><path class="cls-27" d="M631.59,311.16c1.27-4.44,1.88-6.52,2.61-9.05C637.53,305.68,635.15,307.5,631.59,311.16Z"/><path class="cls-27" d="M631.66,330.73c.69-1.45,1.66-1.36,2.33-.63a3.12,3.12,0,0,1,.88,2.35,1.23,1.23,0,0,1-2.2.49A6.94,6.94,0,0,1,631.66,330.73Z"/><path class="cls-27" d="M679.56,290.06l9.39-.81C686.81,293.65,684.25,292.08,679.56,290.06Z"/><path class="cls-27" d="M661.32,297.15c1.6.11,1.86,1.05,1.42,1.94a3.13,3.13,0,0,1-1.88,1.66,1.23,1.23,0,0,1-1.25-1.87C660,298.14,660.82,297.63,661.32,297.15Z"/><path class="cls-27" d="M620.24,254.66l3.35,8.82C618.78,262.62,619.59,259.73,620.24,254.66Z"/><path class="cls-27" d="M608.45,239.05c.32,1.57-.51,2.08-1.49,1.9a3.15,3.15,0,0,1-2.11-1.35,1.23,1.23,0,0,1,1.46-1.72A7.33,7.33,0,0,1,608.45,239.05Z"/><path class="cls-27" d="M452.12,462.93c1.17,4.47,1.72,6.57,2.38,9.12C449.81,470.68,450.93,467.89,452.12,462.93Z"/><path class="cls-27" d="M442.07,446.14c.15,1.6-.73,2-1.68,1.73a3.11,3.11,0,0,1-1.95-1.57,1.22,1.22,0,0,1,1.63-1.55A7.19,7.19,0,0,1,442.07,446.14Z"/><path class="cls-27" d="M421.64,505.56,414,511C413.58,506.18,416.58,506.22,421.64,505.56Z"/><path class="cls-27" d="M433.71,490.16c-1.44.71-2.14,0-2.21-1a3.08,3.08,0,0,1,.76-2.39,1.23,1.23,0,0,1,2,1A7.11,7.11,0,0,1,433.71,490.16Z"/><path class="cls-27" d="M509.57,430l2.61-9.06C515.51,424.48,513.13,426.31,509.57,430Z"/><path class="cls-27" d="M509.65,449.54c.68-1.46,1.65-1.36,2.32-.63a3.09,3.09,0,0,1,.88,2.35,1.22,1.22,0,0,1-2.19.49A6.94,6.94,0,0,1,509.65,449.54Z"/><path class="cls-27" d="M498.23,373.47l3.34,8.81C496.76,381.43,497.57,378.54,498.23,373.47Z"/><path class="cls-27" d="M486.43,357.86c.33,1.57-.51,2.08-1.48,1.9a3.13,3.13,0,0,1-2.11-1.35,1.23,1.23,0,0,1,1.45-1.72A7.2,7.2,0,0,1,486.43,357.86Z"/><path class="cls-11" d="M41.84,0c1.3.73,3.61-1.19,4.13,1.59a44.69,44.69,0,0,1-6.56,15.49c-1.25,1.9-2.31,4-5.11,3.78C29,18.61,23,17.52,19.16,12.53a4.28,4.28,0,0,1,.11-2C24.19,5.28,31.21,5.07,36.35,3c2,.11.82-1.11.79-.18,0,.14-.23.14-.67.18a4.28,4.28,0,0,1-2.66-.57,1.19,1.19,0,0,1-.46-1.09c.06-.4.14-.6.24-.61Z"/><path class="cls-12" d="M33.33,1.7l7.12.51L20,11.24C12.55,13.61,6.31,10.27,0,7.09.58,4.33,3.58,6,4.81,4.43l9.24-.81c2.35-1.07,5.06.06,7.37-1.22L28,1.9C29.72,1.18,31.49.55,33.33,1.7Z"/><path class="cls-13" d="M45.7,39.08c-7.13,3.23-15.05,3.66-22.37,6.22-1.06,1.36-2.41.93-3.74.58-2.49-.61-4.76,2.14-7.33.48.06-.32.11-.64.17-1a8.21,8.21,0,0,1,2-3.36c5.29-4.82,9.05-11,13.91-16.14,1.84-2,3.38-4.42,6.29-5.12C42.44,24.4,44.11,31.71,45.7,39.08Z"/><path class="cls-14" d="M0,7.09C7,7,13.1,11,20,11.24l0,.37c-1.51,9.34-2.73,18.72-4.81,28-.78,2-1.49,4-2.45,6a3.41,3.41,0,0,0-.42.83A37.54,37.54,0,0,1,8,33.37c.24-2,.47-4-1.9-5C4,21.3-.46,14.9,0,7.09Z"/><path class="cls-15" d="M45.7,39.08C43.14,34.25,40.61,29.41,38,24.6c-.83-1.54-1.34-3.59-3.85-3.06a1,1,0,0,1-.32-.92c.06-.32.12-.48.2-.49,5.11-2.06,5.29-7.57,7.9-11.38C43.49,6.5,44.64,4,46,1.59l.36,15.21c-1.24,7.39,1.21,14.89-.62,22.27Z"/><path class="cls-16" d="M34.05,20.13l.12,1.41L15.37,43.09c-2.52.14-2.45-1.21-1.68-3C15,31.7,16.14,23.26,17.56,14.85c.2-1.18,1.56-2.16,2.38-3.23C23.73,16,30,16.28,34.05,20.13Z"/></g></g></svg>