<svg xmlns="http://www.w3.org/2000/svg" viewBox="0 0 1830.97 592.62"><defs><style>.cls-1{fill:#8b8593;}.cls-2{fill:#736d7b;}.cls-3{fill:#787a89;}.cls-4{fill:#d19c29;}.cls-5{fill:#eeb553;}.cls-6{fill:#fdc73e;}.cls-7{fill:#070c10;}.cls-8{fill:#9b7e30;}.cls-9{fill:#f0b723;}.cls-10{fill:#fecd4c;}.cls-11{fill:#ae9331;}.cls-12{fill:#141414;}.cls-13{fill:#fac50f;}.cls-14{fill:#e8b118;}</style></defs><title>Tagsam</title><g id="Layer_2" data-name="Layer 2"><g id="Layer_1-2" data-name="Layer 1"><polygon class="cls-1" points="1669.99 551.74 1749.29 323.12 1798.47 474.75 1669.99 551.74"/><polygon class="cls-2" points="1749.29 323.12 1830.97 349.28 1798.47 474.75 1749.29 323.12"/><polygon class="cls-3" points="1669.99 551.74 1733.97 592.62 1798.47 474.75 1669.99 551.74"/><polygon class="cls-4" points="1695.73 477.58 1609.44 420.24 1712 430.66 1695.73 477.58"/><polygon class="cls-5" points="1711.65 431.13 1725.64 391.35 1623.91 379.97 1711.65 431.13"/><polygon class="cls-6" points="1609.44 420.24 1623.91 379.97 1711.65 431.13 1609.44 420.24"/><polyline class="cls-7" points="797.99 130.33 1609.44 420.24 1623.91 379.97 810.23 97.56 797.99 130.33"/><polygon class="cls-4" points="810.23 97.56 767.19 79.76 756.06 117.25 797.99 130.33 810.23 97.56"/><polygon class="cls-8" points="756.06 117.25 695.52 88.6 703.63 0 763.62 17.81 766.9 80.72 756.06 117.25"/><polygon class="cls-9" points="698.37 57.48 657.76 63.58 702.06 17.19 698.37 57.48"/><polygon class="cls-10" points="657.76 63.58 651.95 26.08 701.95 18.33 657.76 63.58"/><polygon class="cls-7" points="652.4 28.96 39.43 120.99 42.46 155.16 657.32 60.73 652.4 28.96"/><polygon class="cls-8" points="42.46 155.16 0.18 164.41 14.88 122.02 39.43 120.99 42.46 155.16"/><polygon class="cls-11" points="0 164.44 39.43 120.99 14.71 121.81 0 164.44"/><polygon class="cls-10" points="756 117.44 810 97.44 767 79.44 756 117.44"/><polygon class="cls-12" points="798 130.44 1624 380.44 810 97.44 798 130.44"/><polygon class="cls-12" points="42 155.44 652 29.44 39 121.44 42 155.44"/><polygon class="cls-4" points="148.28 105.04 39 121.44 21 97.44 148.28 105.04"/><polygon class="cls-9" points="21 97.44 44 63.44 148 105.44 21 97.44"/><polygon class="cls-13" points="44 63.44 195 41.44 148 105.44 44 63.44"/><polygon class="cls-14" points="195 41.44 240 63.44 148 105.44 195 41.44"/><polygon class="cls-4" points="240 63.44 224.31 93.63 148 105.44 240 63.44"/><polygon class="cls-10" points="696 88.44 764 18.44 702 0.44 696 88.44"/><polygon class="cls-14" points="696 88.44 767 79.44 763.63 18.12 696 88.44"/></g></g></svg>