<svg xmlns="http://www.w3.org/2000/svg" viewBox="0 0 101.12 133.85"><defs><style>.cls-1{fill:none;stroke:#572120;stroke-miterlimit:10;stroke-width:8px;}.cls-2{fill:#313131;}.cls-3{fill:#8c3131;}.cls-4{fill:#572120;}.cls-5{fill:#954242;}.cls-6{fill:#2f0e0f;}.cls-7{fill:#fff;}.cls-8{fill:#53262c;}.cls-9{fill:#484864;opacity:0.64;}.cls-10{fill:#6b2828;}.cls-11{fill:#190708;}.cls-12{fill:#6b3030;}.cls-13{fill:#662929;}.cls-14{fill:#8e4040;}.cls-15{fill:#a65959;}.cls-16{fill:#b76c6c;}.cls-17{fill:#7b848d;}.cls-18{fill:#d8ddee;}.cls-19{fill:#c8cace;}.cls-20{fill:#8c8c9d;}.cls-21{fill:#747478;}.cls-22{fill:#110806;}.cls-23{fill:#843c3a;}.cls-24{fill:#0e0b02;}</style></defs><title>Asset 7TeslaRoadster</title><g id="Layer_2" data-name="Layer 2"><g id="Layer_1-2" data-name="Layer 1"><polygon class="cls-1" points="41.47 56.12 39.2 54.76 38.81 49.78 42.1 46.14 45.2 47.98 46.73 50.57 46.37 54 41.47 56.12"/><polygon class="cls-2" points="27.87 130.67 43.6 104.23 33.1 96.03 18.27 96.99 8.02 111.86 10.95 123.39 27.87 130.67"/><polygon class="cls-2" points="78.88 44.95 96.83 14.8 84.77 8.74 69.28 11.27 59.03 26.15 61.95 37.68 78.88 44.95"/><polygon class="cls-3" points="0 128.63 10.01 105.22 14.45 122.68 0 128.63"/><polygon class="cls-4" points="25.7 133.85 29.8 129.3 14.45 122.68 0 128.63 25.7 133.85"/><polygon class="cls-5" points="10.01 105.22 16.65 82.32 26.8 83.6 10.01 105.22"/><polygon class="cls-5" points="11.64 111.64 26.8 83.6 10.01 105.22 11.64 111.64"/><polygon class="cls-3" points="29.07 98.1 26.8 83.6 16.45 102.76 29.07 98.1"/><polygon class="cls-5" points="35.54 84.89 26.8 83.6 29.07 98.1 35.54 84.89"/><polygon class="cls-3" points="38.86 102.81 29.07 98.1 35.54 84.89 38.86 102.81"/><polygon class="cls-3" points="45.25 92.07 44.65 85.56 35.54 84.89 38.86 102.81 45.25 92.07"/><polygon class="cls-6" points="42.67 106.75 46.72 99.93 45.25 92.07 38.86 102.81 42.67 106.75"/><polygon class="cls-7" points="12.45 83.73 16.05 84.39 16.65 82.32 19.11 78.19 15.15 77.79 12.45 83.73"/><polygon class="cls-8" points="33.55 72.24 26.8 83.6 16.65 82.32 19.11 78.19 33.55 72.24"/><polygon class="cls-3" points="52.4 38.7 26.26 83.56 35.54 84.89 52.4 38.7"/><polygon class="cls-5" points="44.65 85.56 52.4 38.7 35.54 84.89 44.65 85.56"/><polygon class="cls-9" points="46.95 48.33 32.74 52.46 32.14 45.95 51.16 37.97 52.4 38.7 46.95 48.33"/><polygon class="cls-10" points="45.25 92.07 44.65 85.56 57.22 62.55 45.25 92.07"/><polygon class="cls-11" points="46.6 100.14 79.54 44.79 45.25 92.07 46.6 100.14"/><polygon class="cls-4" points="74.75 42.5 79.54 44.79 45.25 92.07 74.75 42.5"/><polygon class="cls-12" points="64.74 33.47 74.75 42.5 45.01 92.48 64.74 33.47"/><polygon class="cls-3" points="52.4 38.7 57.18 39.59 44.65 85.56 52.4 38.7"/><polygon class="cls-4" points="51.81 72.45 51.15 61.73 44.65 85.56 51.81 72.45"/><polygon class="cls-13" points="57.18 39.59 51.86 72.5 51.03 61.67 57.18 39.59"/><polygon class="cls-4" points="61.87 42.38 57.18 39.59 51.86 72.5 61.87 42.38"/><polygon class="cls-3" points="51.16 37.97 61.48 19.21 54.49 37.99 51.16 37.97"/><polygon class="cls-5" points="57.18 39.59 54.49 37.99 51.16 37.97 52.4 38.7 57.18 39.59"/><polygon class="cls-4" points="61.93 42.42 64.99 33.05 63.89 24.56 61.93 42.42"/><polygon class="cls-3" points="54.49 37.99 63.89 24.56 61.93 42.42 54.49 37.99"/><polygon class="cls-14" points="61.48 19.21 63.89 24.56 54.49 37.99 61.48 19.21"/><polygon class="cls-15" points="72 12.33 63.89 24.56 61.48 19.21 72 12.33"/><polygon class="cls-4" points="95.89 17.32 101.12 6.17 97.95 6.8 91.58 1.05 84.11 10.31 95.89 17.32"/><polygon class="cls-16" points="61.48 19.21 69.68 8.71 72 12.33 61.48 19.21"/><polygon class="cls-3" points="84.11 10.31 72 12.33 69.68 8.71 84.11 10.31"/><polygon class="cls-15" points="91.58 1.05 77.41 3.25 84.11 10.31 91.58 1.05"/><polygon class="cls-16" points="69.68 8.71 77.41 3.25 84.11 10.31 69.68 8.71"/><polygon class="cls-16" points="91.58 1.05 86.06 0 77.41 3.25 91.58 1.05"/><polygon points="23.55 76.36 19.84 74.15 19.94 69.73 25.14 70.87 28.74 74.22 23.55 76.36"/><polygon points="67 29.91 69.14 19.72 79.88 12.96 90.08 17.92 94.11 28.99 87.85 39.52 75.44 39.69 67 29.91"/><polygon class="cls-2" points="69.42 28.42 71.54 21.57 78.36 25.63 69.42 28.42"/><polygon class="cls-2" points="79.95 22.94 73.14 18.88 78.99 17.05 79.95 22.94"/><polygon class="cls-2" points="83.05 24.78 81.79 17.04 87.57 20.48 83.05 24.78"/><polygon class="cls-2" points="84.55 27.91 90.9 28.05 89.64 21.71 84.55 27.91"/><polygon class="cls-2" points="82.83 30.8 86.23 35.9 89.3 30.74 82.83 30.8"/><polygon class="cls-2" points="77.49 37.42 85.12 37.76 79.2 31.72 77.49 37.42"/><polygon class="cls-2" points="74.81 35.82 70.3 31.18 76.51 28.72 74.81 35.82"/><rect class="cls-17" x="79.09" y="26.45" width="3.12" height="1.92" transform="translate(15.85 82.7) rotate(-59.24)"/><polygon points="39.56 106.95 41.16 116.9 33.8 126.73 22.87 125.8 15.38 117.19 17.39 105.5 28.54 101.04 39.56 106.95"/><polygon class="cls-2" points="37.89 109.14 38.35 116.06 30.79 114.77 37.89 109.14"/><polygon class="cls-2" points="30.27 117.75 37.84 119.05 33.19 122.73 30.27 117.75"/><polygon class="cls-2" points="26.83 117.16 30.66 123.71 24.25 122.61 26.83 117.16"/><polygon class="cls-2" points="24.4 114.85 18.61 116.92 21.95 122.22 24.4 114.85"/><polygon class="cls-2" points="24.95 111.64 20.11 108.21 19.13 113.94 24.95 111.64"/><polygon class="cls-2" points="27.47 103.81 20.46 106.15 27.91 109.55 27.47 103.81"/><polygon class="cls-2" points="30.45 104.32 36.14 106.95 31.38 111.33 30.45 104.32"/><rect class="cls-17" x="26.58" y="113.02" width="3.02" height="1.86" transform="translate(-88.97 122.34) rotate(-80.25)"/><polygon points="40.08 55.51 41.84 51.38 43.54 55.01 42 57.47 40.08 55.51"/><polygon class="cls-18" points="27.63 75.15 26.67 72.06 31.39 66.48 27.63 75.15"/><polygon class="cls-18" points="43.31 56.79 40.78 53.05 31.39 66.48 43.31 56.79"/><polygon class="cls-18" points="30.76 73.65 29.51 70.81 27.63 75.15 30.76 73.65"/><polygon class="cls-17" points="34.09 70.88 31.39 66.48 29.39 71.02 30.76 73.65 34.09 70.88"/><polygon class="cls-17" points="37.53 65.1 35.88 64.11 40.61 58.99 37.53 65.1"/><polygon class="cls-18" points="31.39 66.48 36.01 68.11 34.09 70.88 31.39 66.48"/><polygon class="cls-19" points="40.46 59.15 31.39 66.48 33.93 67.38 40.46 59.15"/><polygon class="cls-20" points="36.01 68.11 37.53 65.1 36.29 64.36 33.91 67.42 36.01 68.11"/><polygon class="cls-17" points="24.28 70.91 26.67 72.06 31.39 66.48 30.77 66.11 25.26 69.26 24.28 70.91"/><polygon points="22.92 61.44 23.81 67 29.36 64.71 30.31 63.6 26.18 61.14 22.92 61.44"/><polygon class="cls-18" points="30.77 66.11 31.26 65.28 31.21 63.02 30.31 63.6 29.36 64.71 23.81 67 24.28 70.91 25.26 69.26 30.77 66.11"/><polygon class="cls-19" points="22.92 61.44 20.91 62.48 23.83 67.2 22.92 61.44"/><polygon class="cls-19" points="24.28 70.91 22.22 71.09 23.81 67 24.28 70.91"/><polygon class="cls-18" points="19.82 68.54 22.22 71.09 23.81 67 19.82 68.54"/><polygon class="cls-18" points="20.91 62.48 19.39 65.49 23.81 67 20.91 62.48"/><polygon class="cls-18" points="19.82 68.54 19.39 65.49 23.81 67 19.82 68.54"/><polygon class="cls-19" points="22.22 71.09 20.15 69.86 19.82 68.54 22.22 71.09"/><polygon class="cls-17" points="40.56 59.07 38.66 56.08 36.93 58.59 39.18 60.76 40.56 59.07"/><polygon class="cls-21" points="23.8 64.2 23.75 61.93 25.81 61.76 24.37 62.3 23.8 64.2"/><polygon class="cls-22" points="45.32 39.7 49.56 45.53 53.13 37.4 45.32 39.7"/><polygon class="cls-23" points="42.56 41.37 47.67 44.28 49.06 40.08 44.72 37.49 42.56 41.37"/><polygon class="cls-24" points="82.16 6.07 89.73 3.35 97.1 9.65 94.76 13.57 82.16 6.07"/></g></g></svg>